<?xml version="1.0" encoding="utf-8"?>
<!-- Generator: Adobe Illustrator 27.4.0, SVG Export Plug-In . SVG Version: 6.00 Build 0)  -->
<svg version="1.1" id="katman_1" xmlns="http://www.w3.org/2000/svg" xmlns:xlink="http://www.w3.org/1999/xlink" x="0px" y="0px"
	 viewBox="0 0 704.4 597.7" style="enable-background:new 0 0 704.4 597.7;" xml:space="preserve">
<style type="text/css">
	.st0{fill:#99AD65;}
	.st1{fill:#909E5E;}
	.st2{fill:#879659;}
	.st3{fill:#141414;}
	.st4{fill:#FFFFFF;}
	.st5{fill:#EA5242;}
	.st6{fill:#262728;}
</style>
<g>
</g>
<g>
	<g>
		<g>
			<path class="st0" d="M528.2,485c5.7-24.6,11.3-49.1,17-73.7s15.6-49.7,35.5-65.3c10.7-8.4,24.7-13.5,38-10.7s24.8,15.2,23.7,28.8
				c-0.1,1.7-0.4,3.8,3.1,3.9c8.9-6.8,8.5-19.8,3.7-29.3c-7.5-15.1-24.4-24.4-41.2-25.1c-16.9-0.7-33.5,6.3-46.5,17
				s-22.8,24.9-30.7,39.9c-10,19.1-17.3,39.7-29.9,57.1c-7,9.7-15.4,19.9-26.7,24c-39.1,20.7-88.2-4-88.2-4c-3-1.8-5.9-3.7-8.3-6.2
				c-6.7-6.7-9.8-16.3-11.5-25.6c-2.6-13.3-3-26.9-2.2-40.3c1.5-24.9,7.5-49.6,17.6-72.4c7.4-16.8,16.9-32.5,23.9-49.4
				s11.6-35.5,8.3-53.5c-4.1-22.6-20.6-41.9-41.2-52c-23.3-11.5-97.4-21-130.1,31.1c-13.9,22.2-13.7,50.2-13.8,76.4
				c-0.1,27.8,0.8,55.7,5.5,83.1c6.1,36.1,18.7,70.9,35.4,103.4c13.3,26.1,30.2,51.7,55.1,67.1c18.5,16,111.5,19.2,138.8,19.8
				c5.6,0.1,11.2-0.9,16.5-3C492.9,520.8,517,508.5,528.2,485z"/>
			<path class="st1" d="M642.4,364.1c-0.1,1-0.2,2.2,0.5,3c0.8,0.9,2.1,0.7,3.2,0.1c-1.3-11.4,0.8-23.8-5.1-33.5
				c-5.9-9.7-18.4-13.7-29.7-13.1c-17.3,1-33.2,10.8-44.6,23.8c-11.4,13-18.9,29-25.1,45.2c-6.2,16.2-11.4,32.8-19,48.3
				c-2.5,5.1-5.2,10-6.7,15.5c-1.4,5.4-1.4,11.5,1.6,16.4c3.3,5.5,8.3,6.9,13.9,6.5c6.6-21.1,9-43.3,14-64.9
				c5.7-24.6,15.6-49.7,35.5-65.3c10.7-8.4,24.7-13.5,38-10.7C632,338.1,643.5,350.6,642.4,364.1z"/>
			<path class="st1" d="M418.4,470c-6.3-11.1-18.9-14.7-30.1-21c-3.4-1.9-7.3-4.1-10-6.9c-6.7-6.7-10.3-15.9-12.1-25.2
				c-2.6-13.3-3.2-26.9-2.4-40.3c1.5-24.9,7.5-49.6,17.6-72.4c7.4-16.8,16.9-32.5,23.9-49.4s11.6-35.5,8.3-53.5
				c-1.3-7.2-3.9-14-7.4-20.3c0.2,2.9,1.5,6.3,1.9,8.4c2.1,11.8,2.7,24-0.2,35.6c-2.8,11.2-8.6,21.4-14.5,31.3
				c-21.6,36.4-45.1,72.8-55,113.9c-5,20.8-6.3,43,0.3,63.4c3.7,11.5,9.9,22.2,17.4,31.7s16.8,18.1,28.4,21.4
				c12.4,3.5,25.9,0.4,36.7-6.8C421.1,476.5,420.2,473.1,418.4,470z"/>
			<g>
				<path class="st2" d="M379.5,443.2c-0.7-0.6-1.4-1.2-2-1.8c-4-4-6.6-9-8.6-14.4c-16.8,14.3-36.7,24.5-58.4,27.7
					c-11.7,1.7-23.8,1-35.3-1.8c5.7,10.2,12,20.1,19.3,29.1c10.7-3.3,21.3-7.1,32-10.4c13.6-4.2,27.7-7.7,39.3-15.8
					C371,452.2,375.4,447.9,379.5,443.2z"/>
				<path class="st2" d="M230.4,310.4c0.8,9.4,1.9,18.5,3.5,27.8c0,0,0.1,0.4,0.1,0.5c3.1,2,6.5,3.7,9.9,5.1
					c11.3,4.5,23.7,5.7,35.9,5.5c18.9-0.3,37.7-3.6,55.6-9.8c9-3.1,17.7-6.9,25.9-11.8c5.1-3,10.3-6.8,15-10.4
					c1.8-4.9,3.6-9.3,5.7-14.1c2.3-5.3,5-10.7,7.7-15.9c-28,22.9-61.7,39.9-97.5,42.2c-15.2,1-30.9-0.9-44.7-7.4
					C241.2,319.1,235.3,315.1,230.4,310.4z"/>
				<path class="st2" d="M335.3,404.8c9.7-4.5,19-9.5,28.2-15.1c-0.1-4.7,0.2-9.6,0.5-14.3c0.1-1.5,0.2-3,0.3-4.5
					c-4.1,2.9-8.4,5.7-12.7,8.3c-17.4,10.3-37.3,17.2-57.5,16.4c-12.1-0.5-24-3.7-35.2-8.3c-5.1-2.1-10.2-4.5-14.9-7.2
					c3.8,12.2,8.2,24.2,13.2,35.9c6.1,1.9,12.6,3,19,3.3C296.6,420.1,316.7,413.4,335.3,404.8z"/>
			</g>
			<g>
				<path class="st3" d="M269.7,211.7c0,10.9-7.8,19.6-17.5,19.6s-17.5-8.8-17.5-19.6s7.8-19.6,17.5-19.6
					C261.9,192.1,269.7,200.9,269.7,211.7z"/>
				<path class="st4" d="M243.6,201.6c-0.9,1.2-1.6,2.6-2,4.1s-0.2,3.2,0.6,4.5s2.4,1.9,3.7,1.3c1.7-0.8,2.1-3.3,2.9-5.2
					c0.8-2,2.3-3.6,4.1-4.4c0.6-0.3,1.2-0.5,1.7-0.9s0.8-1.2,0.6-1.8c-0.5-1.5-4.3-1.6-5.5-1.6C247,197.6,245.1,199.5,243.6,201.6z"
					/>
			</g>
			<g>
				<ellipse class="st3" cx="343.1" cy="218.3" rx="18.8" ry="21.1"/>
				<path class="st4" d="M333.9,207.4c-0.9,1.3-1.7,2.8-2.1,4.4c-0.4,1.6-0.3,3.5,0.6,4.8c0.9,1.4,2.6,2.1,3.9,1.4
					c1.8-0.9,2.2-3.5,3.1-5.6s2.5-3.8,4.4-4.7c0.6-0.3,1.3-0.5,1.8-1s0.9-1.2,0.7-1.9c-0.5-1.6-4.6-1.8-5.9-1.7
					C337.5,203.1,335.4,205.1,333.9,207.4z"/>
			</g>
			<path class="st3" d="M262.1,254.9c0,0,4.8,9.1,14.9,10.6c18.5,2.7,29.9-9.4,30.6-8.6c0.7,0.7-4.7,53.3-29.3,50.4
				C251,304,262.1,254.9,262.1,254.9z"/>
			<path class="st5" d="M262.5,294.2c2.6,6.8,7.3,12.1,15.7,13.1c8.1,1,14.2-4.1,18.6-11.4c-0.6-1.2-1.4-2.3-2.4-3.1
				c-4-3.6-10.5-3.3-15-0.2c-2.9-3.4-8.3-4-12.3-2.1C265.4,291.2,263.9,292.5,262.5,294.2z"/>
		</g>
	</g>
	<g>
		<path class="st6" d="M98.3,286.9c-5.3-3-8-8.1-8-15.5c0-4.7,1.2-9.9,3.5-15.6c3.2,3.6,6.2,6.1,9,7.5s5.8,2.2,9,2.2
			c9,0,15.7-5,20.1-15.1c4.4-10.1,6.6-21.2,6.6-33.4c0-22.8-8.5-34.2-25.6-34.2c-4.9,0-9,0.3-12.4,0.8l-22,103.2H39.7l36.6-171.4
			l39.9-5.4l-12.7,59.8h1.6c6.8,0,13.2-2.2,19.1-6.6c5.9-4.4,10.7-10,14.3-16.7c3.6-6.7,5.4-13.5,5.4-20.3c0-8.3-2.9-15.2-8.8-20.8
			c-5.8-5.6-14.8-8.4-26.8-8.4c-11,0-21.7,2.5-32.1,7.4s-18.9,12.4-25.5,22.2c-6.4,10-9.7,21.9-9.7,35.9c0,6.6,0.6,11.3,1.9,13.9
			c1.3,2.6,1.9,4.1,1.9,4.4c-9.5,0-16.7-1.9-21.6-5.8s-7.3-10.2-7.3-19c0-12.2,4.6-23.8,13.7-34.8c9.2-11,21.3-19.8,36.4-26.5
			c15.1-6.7,31-10.1,47.7-10.1c12.6,0,23.2,2,31.8,5.9c8.6,4,15,9.2,19.3,15.6c4.2,6.5,6.3,13.6,6.3,21.3c0,8.3-2.3,16.3-7,24
			s-11.3,14-19.9,18.9c10.8,2,18.8,7,24,15s7.8,17.5,7.8,28.4c0,10.2-1.9,21.4-5.8,33.4c-3.9,12-10.2,22.4-19.1,31.1
			c-8.9,8.7-20.3,13.1-34.1,13.1C109.8,291.3,103.6,289.9,98.3,286.9z"/>
		<g>
			<path class="st6" d="M313.5,188.5c-7.7,3.1-14.6,4.7-20.5,4.7c-1.4,0-2.4-0.1-3-0.3v-0.3c0-28.7-11.5-43.1-34.5-43.1
				c-16.9,0-30.9,5.4-42,16.3s-19.2,23.8-24.3,38.7c-5,14.9-7.5,28.5-7.5,40.7c0,14.7,3.9,25.5,11.6,32.3
				c7.7,6.8,18.2,10.2,31.5,10.2c11,0,21.1-3.3,30.5-10c9.3-6.6,17-16.1,22.9-28.3c5.9-12.2,9.6-26.5,11-42.8
				c9.9-1.6,15.2-4.3,23.6-8.2s7.6-11.2,12.9-16.8l2.6-7.9C321.9,178.3,321.2,185.4,313.5,188.5z M269.7,229.9
				c-10.8,27.3-34.5,43.6-52.8,36.3c-18.4-7.3-24.5-35.3-13.7-62.6s34.5-43.6,52.8-36.3C274.3,174.5,280.5,202.5,269.7,229.9z"/>
		</g>
		<g>
			<path class="st6" d="M452.8,177.1c-6.3,4.5-13.3,8.3-21,11.5c-7.7,3.1-14.6,4.7-20.5,4.7c-1.4,0-2.4-0.1-3-0.3v-0.3
				c0-28.7-11.5-43.1-34.5-43.1c-16.9,0-30.9,5.4-42,16.3s-19.2,23.8-24.3,38.7c-5,14.9-7.5,28.5-7.5,40.7
				c0,14.7,3.9,25.5,11.6,32.3c7.7,6.8,18.2,10.2,31.5,10.2c11,0,21.1-3.3,30.5-10c9.3-6.6,17-16.1,22.9-28.3s9.6-26.5,11-42.8
				c9.9-1.6,19-4.4,27.4-8.2c8.4-3.9,15.1-8.6,20.3-14.1L452.8,177.1z M387.3,231.3c-10.3,25.9-33.1,41.2-51.1,34.1
				s-24.2-33.9-13.9-59.8c10.3-25.9,33.1-41.2,51.1-34.1C391.3,178.5,397.6,205.3,387.3,231.3z"/>
		</g>
		<path class="st6" d="M498.1,280.4c-5.8-5.3-8.6-12.9-8.6-22.8c0-4.3,0.5-9,1.6-14l2.2-10.5c0.7-3.1,1.1-6.4,1.1-10
			c0-8.6-3.2-12.9-9.7-12.9c-2.9,0-5.9,0.8-9,2.4c-3.1,1.6-6.8,4.1-10.9,7.5l-14,66.6H412l39.1-183.3L491,98l-20.4,95l52-41h26.7
			l-53.9,37.5c2.7-0.7,5.7-1.1,8.9-1.1c9.7,0,17.1,3,22.1,8.9c5,5.9,7.5,13.5,7.5,22.6c0,3.8-0.4,7.2-1.1,10.2l-3,13.5
			c-0.9,3.2-1.3,6.1-1.3,8.6c0,6.6,3.5,10,10.5,10c5.4,0,9.7-1.9,12.9-5.8c3.2-3.9,6.5-9.8,9.7-17.9H573
			c-11.1,33.2-27.7,49.9-49.6,49.9C512.3,288.4,503.8,285.7,498.1,280.4z"/>
		<path class="st6" d="M581.5,345.9c-6.4-5.5-9.6-12.4-9.6-20.9c0-7.9,2-14.4,5.9-19.4s9.1-9,15.4-11.9c6.3-2.9,14.7-5.9,25.3-9.2
			l2.7-11.9c-9.2,10.4-20.1,15.6-32.9,15.6c-8.6,0-15.6-2.7-20.9-8.1c-5.3-5.4-8-13.5-8-24.3c0-4.5,0.7-10.3,2.2-17.5L580,152h38.8
			l-19.4,91.6c-0.5,2.2-0.8,4.4-0.8,6.7c0,7.9,2.7,11.9,8.1,11.9c5,0,9.3-2.1,12.9-6.3c3.6-4.2,6.5-10,8.6-17.4l18.4-86.5h39.1
			l-32.9,156.3c-3.6,17.2-9.9,29.2-19,35.8s-19.1,10-30,10C595.3,354.1,587.9,351.4,581.5,345.9z M606.7,325.2
			c2.9-3.3,5.1-8.7,6.7-16l3.2-15.9c-9.5,3.2-16.9,7-22.1,11.3c-5.2,4.3-7.8,9.9-7.8,16.7c0,2.2,1.1,4.2,3.2,6.1
			c2.2,1.9,4.7,2.8,7.5,2.8C600.7,330.1,603.8,328.5,606.7,325.2z"/>
	</g>
	<path class="st3" d="M320.7,171.3c0.3-3.4,1.4-6.7,3.1-9.7c5.5-9.6,20-29.4,45.4-29.4c33.5,0,46.4,22.4,46.4,22.4
		s-29.6-22.1-53.9-12.4S320.1,177,320.1,177L320.7,171.3z"/>
	<path class="st3" d="M297.9,171.3c-0.4-3.4-1.4-6.8-3.1-9.8c-5.6-9.6-20-29.3-45.3-29.3c-33.5,0-46.4,22.4-46.4,22.4
		s29.5-22.2,53.8-12.4s41.7,34.8,41.7,34.8L297.9,171.3z"/>
</g>
</svg>
