<?xml version="1.0" encoding="utf-8"?>
<!-- Generator: Adobe Illustrator 28.2.0, SVG Export Plug-In . SVG Version: 6.00 Build 0)  -->
<svg version="1.1" id="katman_1" xmlns="http://www.w3.org/2000/svg" xmlns:xlink="http://www.w3.org/1999/xlink" x="0px" y="0px"
	 viewBox="0 0 868.8 909.5" style="enable-background:new 0 0 868.8 909.5;" xml:space="preserve">
<style type="text/css">
	.st0{display:none;}
	.st1{display:inline;fill:#262728;}
	.st2{display:inline;fill:#99AD65;}
	.st3{display:inline;fill:#909E5E;}
	.st4{display:inline;}
	.st5{fill:#879659;}
	.st6{fill:#262728;}
	.st7{fill:#FFFFFF;}
	.st8{opacity:0.27;fill:#76787B;enable-background:new    ;}
	.st9{opacity:0.64;fill:#FFFFFF;enable-background:new    ;}
	.st10{display:inline;fill:#EA5242;}
	.st11{fill:#99AD65;}
	.st12{fill:#909E5E;}
	.st13{fill:#EA5242;}
	.st14{fill:#CDCCCC;}
	.st15{fill:#D7D7D7;}
	.st16{fill:#CA907F;}
	.st17{fill:#99675C;}
	.st18{fill:#6D4E45;}
	.st19{fill:#6E4E46;}
</style>
<g>
	<g>
		<g>
			<g class="st0">
				<path class="st1" d="M314.9,25.9c4.7-4,10.3-8.4,15.2-6.8c3.7,1.2,5.3,5.6,6.5,9.3c1.6,3.7,3.1,7.5,5,11.2c0.9,1.9,2.2,4,4,5.3
					c1.9,1.2,4.4,1.6,6.5,0.3c4-2.5,4-8.4,3.1-12.4c-2.2-10.3-5.9-20.2-11.2-28.6c-1.2-1.9-2.5-3.7-4.4-4c-1.6-0.3-3.1,0-4.7,0.3
					c-6.8,1.9-13.7,5.6-20.2,9.3c-17.1,9.9-31.4,21.1-47.9,32.3c-3.1,2.2-15.5,17.7-17.4,23.3S245,76.3,241.5,81
					c-2.8,4-9.6,16.8-0.3,10.6c8.1-5.3,12.4-20.5,19.6-27.1C277.6,48.9,297.8,40.9,314.9,25.9z"/>
				<path class="st2" d="M304.7,67.3c-19,30.5-19,69-19,105.1c0,38.2,1.2,76.5,7.5,114.1c8.4,49.7,25.8,97.3,48.5,142.4
					c18.3,35.8,41.4,71.2,75.9,92.3c34.5,21.1,82.1,24.6,113.5-0.9c15.9-13.1,26.1-36.4,15.9-54.4c-11.2-19.9-40.1-21.8-56.3-37.9
					c-9.3-9.3-13.4-22.4-15.9-35.1c-3.4-18.3-4-37-3.1-55.3c2.2-34.2,10.3-68.1,24.3-99.5c10.3-23,23.3-44.8,33-68.1
					c9.6-23.3,15.9-48.8,11.5-73.7c-5.6-31.1-28.3-57.5-56.6-71.5C451.4,8.8,349.4-4.2,304.7,67.3z"/>
				<path class="st3" d="M546.9,467.5c-8.7-15.2-26.1-20.2-41.4-28.9c-4.7-2.8-9.9-5.6-13.7-9.3c-9.3-9.3-14-21.8-16.5-34.8
					c-3.4-18.3-4.4-37-3.4-55.3c2.2-34.2,10.3-68.1,24.3-99.5c10.3-23,23.3-44.8,33-68.1c9.6-23.3,15.9-48.8,11.5-73.7
					c-1.9-9.9-5.3-19.3-10.3-28c0.3,4,2.2,8.7,2.5,11.5c2.8,16.2,3.7,33-0.3,49.1c-3.7,15.5-11.8,29.5-19.9,43.2
					c-29.5,50.1-61.9,100.1-75.6,156.7c-6.8,28.6-8.7,59.1,0.3,87.1c5,15.9,13.7,30.5,23.9,43.5c10.3,13.1,23,24.9,39.2,29.5
					c17.1,5,35.8,0.6,50.7-9.3C550.6,476.2,549.4,471.5,546.9,467.5z"/>
				<g class="st4">
					<path class="st5" d="M493.4,430.5c-0.9-0.6-1.9-1.6-2.8-2.5c-5.6-5.6-9-12.4-11.8-19.9c-23,19.6-50.4,33.9-80.2,37.9
						c-16.2,2.2-32.6,1.6-48.5-2.5c7.8,14,16.5,27.7,26.4,40.1c14.6-4.4,29.2-9.6,43.8-14.3c18.7-5.6,37.9-10.6,54.1-21.8
						C481.6,442.9,487.5,437,493.4,430.5z"/>
					<path class="st5" d="M288.2,247.6c1.2,13.1,2.5,25.5,4.7,38.2v0.6c4.4,2.8,9,5,13.7,7.2c15.5,6.2,32.6,7.8,49.4,7.5
						c26.1-0.3,51.9-5,76.5-13.4c12.4-4.4,24.3-9.6,35.4-16.2c6.8-4,14.3-9.3,20.5-14.3c2.5-6.8,5-12.7,7.8-19.3
						c3.1-7.5,6.8-14.6,10.6-21.8c-38.6,31.4-84.9,55-134,57.8c-20.8,1.2-42.6-1.2-61.6-10.3C303.1,259.8,295,254.2,288.2,247.6z"/>
					<path class="st5" d="M432.4,377.6c13.4-6.2,26.1-13.1,38.9-20.8c0-6.5,0.3-13.1,0.6-19.6c0-2.2,0.3-4,0.3-6.2
						c-5.6,4-11.5,7.8-17.4,11.5c-23.9,14-51.3,23.6-79,22.7c-16.8-0.6-33-5.3-48.5-11.5c-6.8-2.8-14-6.2-20.5-9.9
						c5.3,16.8,11.2,33.3,18,49.4c8.4,2.5,17.4,4,26.1,4.7C379.3,398.7,406.9,389.4,432.4,377.6z"/>
				</g>
				<path class="st2" d="M660.4,409c17.4-23.9,27.4-52.5,41-78.7c10.9-20.5,24.3-40.1,42.3-54.7c18-14.6,40.7-24.6,64.1-23.3
					c23.3,0.9,46.3,13.7,56.6,34.5c5.9,11.8,6.8,27.7-2.2,37.6c-1.9,1.9-5,3.4-6.5,1.6c-0.9-0.9-0.9-2.8-0.6-4
					c1.6-18.7-14.3-35.8-32.6-39.5c-18.3-3.7-37.6,3.1-52.2,14.6c-27.4,21.5-41,56-48.8,89.9s-11.2,69-23.3,101.4
					c-5.6,14.9-13.7,29.8-25.8,40.4c-9,7.8-19.6,13.4-31.1,17.1c-21.5,7.2-44.5,9.3-66.9,5.6c-10.6-1.9-21.8-5.3-28.3-14
					c-3.7-5-5.3-11.5-5.9-17.7c-2.5-27.7,16.2-59.7,43.8-67.2c13.7-3.7,26.1-2.8,39.2-9.9C638.3,434.2,650.7,422.4,660.4,409z"/>
				<path class="st3" d="M855,321.6c0,1.6-0.3,3.1,0.6,4c1.2,1.2,2.8,0.9,4.4,0c-1.9-15.5,0.9-32.6-7.2-46c-8.1-13.4-25.2-19-41-18
					c-23.9,1.2-45.7,14.9-61.3,32.6c-15.9,18-25.8,39.8-34.5,62.2c-8.7,22.4-15.5,45.1-26.1,66.5c-3.4,6.8-7.2,13.7-9.3,21.1
					c-1.9,7.5-1.9,15.9,2.2,22.4c4.7,7.5,11.5,9.6,19,9c9-28.9,12.4-59.7,19.3-89.2c7.8-33.9,21.5-68.4,48.8-89.9
					c14.6-11.5,33.9-18.7,52.2-14.6C840.7,285.9,856.6,303,855,321.6z"/>
				<path class="st1" d="M563,77.6c3.7-3.4,8.4-7.2,13.4-5.6c3.7,1.2,5.9,5,7.8,8.4c1.9,3.4,4,6.5,6.2,9.6c1.2,1.9,2.5,3.4,4.4,4.7
					c1.9,1.2,4.4,1.6,6.2,0.3c3.4-2.2,2.5-7.2,0.9-10.9c-3.7-9-8.7-17.7-14.9-25.2c-1.2-1.6-2.8-3.1-4.7-3.7c-1.6-0.3-2.8,0-4.4,0.3
					c-6.2,1.6-12.1,4.7-17.7,7.8c-14.6,8.4-28.6,18-42.3,27.7c-2.5,1.9-5,3.4-6.8,6.2c-2.8,4-3.1,9.3-4,14.3
					c-0.9,4.7-2.8,9.3-5,13.4c-2.2,3.4-6.5,14.6,1.2,9c6.8-4.7,12.4-11.5,18.3-17.1C535.4,103.4,549.4,90.3,563,77.6z"/>
				<g class="st4">
					<path class="st6" d="M348.5,110.2c0,16.2-11.5,28.9-25.8,28.9s-25.8-13.1-25.8-28.9s11.5-28.9,25.8-28.9
						C337,81.3,348.5,94.3,348.5,110.2z"/>
					<path class="st7" d="M343.5,107.1c-0.3-2.2-0.9-4.4-2.2-6.2c-1.2-1.9-3.1-3.7-5.3-4c-2.2-0.6-4.7,0.6-5.3,2.5
						c-0.9,2.8,1.2,5.6,2.5,8.4c1.2,2.8,1.2,6.2,0.3,8.7c-0.3,0.9-0.6,1.9-0.9,2.8c0,0.9,0.3,2.2,1.2,2.5c2.2,0.9,6.2-2.8,7.5-4
						C344.1,114.9,344.1,110.8,343.5,107.1z"/>
				</g>
				<g class="st4">
					<ellipse class="st6" cx="443.3" cy="121.1" rx="25.8" ry="28.9"/>
					<path class="st7" d="M464.2,114.9c-0.3-2.2-0.9-4.4-2.2-6.2s-3.1-3.7-5.3-4c-2.2-0.6-4.7,0.6-5.3,2.5c-0.9,2.8,1.2,5.6,2.5,8.4
						c1.2,2.8,1.2,6.2,0.3,8.7c-0.3,0.9-0.6,1.9-0.9,2.8c0,0.9,0.3,2.2,1.2,2.5c2.2,0.9,6.2-2.8,7.5-4
						C464.8,122.6,464.8,118.6,464.2,114.9z"/>
				</g>
				<g class="st4">
					
						<ellipse transform="matrix(0.7071 -0.7071 0.7071 0.7071 17.3557 242.0369)" class="st8" cx="300.8" cy="100.1" rx="60" ry="60"/>
					<g>
						<path class="st6" d="M300.9,169.9c-38.6,0-69.6-31.4-69.6-69.6c0-38.6,31.4-69.6,69.6-69.6s69.6,31.4,69.6,69.6
							C370.9,138.5,339.5,169.9,300.9,169.9z M300.9,46.8c-29.2,0-53.2,23.9-53.2,53.2s23.9,53.2,53.2,53.2
							c29.2,0,53.2-23.9,53.2-53.2S330.1,46.8,300.9,46.8z"/>
					</g>
					<path class="st9" d="M264.5,76.3c-4.4,7.8-5.9,17.1-5,25.8c0.3,4,1.2,8.4,3.7,11.8c2.5,3.4,6.5,5.6,10.6,5
						c5.9-0.9,9.3-7.2,9.9-13.1c0.6-5.9-0.6-11.8,0-17.7c0.9-7.5,5.6-14.6,12.1-18.7c1.6-0.9,3.4-1.9,5-3.1c1.6-1.2,2.5-3.4,1.9-5.3
						c-0.6-1.9-2.5-3.4-4.4-3.7c-1.9-0.3-4,0-6.2,0.3C280.4,60.1,271.1,65.4,264.5,76.3z"/>
				</g>
				<g class="st4">
					<ellipse class="st8" cx="447.5" cy="116.1" rx="60" ry="60"/>
					<g>
						<path class="st6" d="M447.7,186.1c-38.6,0-69.6-31.4-69.6-69.6c0-38.6,31.4-69.6,69.6-69.6s69.6,31.4,69.6,69.6
							S485.9,186.1,447.7,186.1z M447.7,62.9c-29.2,0-53.2,23.9-53.2,53.2s23.9,53.2,53.2,53.2c29.2,0,53.2-23.9,53.2-53.2
							C500.5,86.9,476.9,62.9,447.7,62.9z"/>
					</g>
					<path class="st9" d="M411.3,92.5c-4.4,7.8-5.9,16.8-5,25.8c0.3,4,1.2,8.4,3.7,11.8c2.5,3.4,6.5,5.6,10.6,5
						c5.9-0.9,9.3-7.2,9.9-13.1c0.6-5.9-0.6-11.8,0-17.7c0.9-7.5,5.6-14.6,12.1-18.7c1.6-0.9,3.4-1.9,5-3.1s2.5-3.4,1.9-5.3
						s-2.5-3.4-4.4-3.7c-1.9-0.3-4,0-6.2,0.3C426.8,76.3,417.5,81.6,411.3,92.5z"/>
				</g>
				<path class="st1" d="M369.9,100.2c5.3-0.9,10.6,0,15.2,2.5c1.2,0.9,2.8,1.9,3.4,3.1c0.6,1.6,0.9,3.1,0.9,4.7
					c0,5,0,10.3-0.3,15.2c-2.2-5.3-7.5-9.3-13.4-9.9s-11.8,2.5-14.9,7.5c-0.9,1.6-1.6,3.4-2.8,5c-0.3,0.3-0.6,0.9-1.2,0.6
					c-0.3,0-0.6-0.3-0.6-0.9c-0.6-1.9-0.3-4-0.3-5.9C357.2,110.8,356.6,103.7,369.9,100.2z"/>
				<path class="st1" d="M329.8,190.7c0,0,8.4-6.8,22.4-4.7c25.5,3.7,35.8,10.9,36.7,11.8c0.9,0.9-0.9,49.7-34.8,45.4
					C316.5,238.9,329.8,190.7,329.8,190.7z"/>
				<path class="st10" d="M330.1,225.6c3.4,9.3,10.6,16.5,23.6,18c10.9,1.2,20.5-2.2,27.7-14.6c-0.9-1.6-3.7-4.4-5.3-5.6
					c-5.6-5-14.6-4.7-20.5-0.3c-4-4.7-11.5-5.6-16.8-2.8C336.4,221.2,332,223.1,330.1,225.6z"/>
			</g>
			<g>
				<path class="st6" d="M314.9,25.9c4.7-4,10.3-8.4,15.2-6.8c3.7,1.2,5.3,5.6,6.5,9.3c1.6,3.7,3.1,7.5,5,11.2c0.9,1.9,2.2,4,4,5.3
					c1.9,1.2,4.4,1.6,6.5,0.3c4-2.5,4-8.4,3.1-12.4c-2.2-10.3-5.9-20.2-11.2-28.6c-1.2-1.9-2.5-3.7-4.4-4c-1.6-0.3-3.1,0-4.7,0.3
					c-6.8,1.9-13.7,5.6-20.2,9.3c-17.1,9.9-31.4,21.1-47.9,32.3c-3.1,2.2-15.5,17.7-17.4,23.3S245,76.3,241.5,81
					c-2.8,4-9.6,16.8-0.3,10.6c8.1-5.3,12.4-20.5,19.6-27.1C277.6,48.9,297.8,40.9,314.9,25.9z"/>
				<path class="st11" d="M304.7,67.3c-19,30.5-19,69-19,105.1c0,38.2,1.2,76.5,7.5,114.1c8.4,49.7,25.8,97.3,48.5,142.4
					c18.3,35.8,41.4,71.2,75.9,92.3c34.5,21.1,82.1,24.6,113.5-0.9c15.9-13.1,26.1-36.4,15.9-54.4c-11.2-19.9-40.1-21.8-56.3-37.9
					c-9.3-9.3-13.4-22.4-15.9-35.1c-3.4-18.3-4-37-3.1-55.3c2.2-34.2,10.3-68.1,24.3-99.5c10.3-23,23.3-44.8,33-68.1
					c9.6-23.3,15.9-48.8,11.5-73.7c-5.6-31.1-28.3-57.5-56.6-71.5C451.4,8.8,349.4-4.2,304.7,67.3z"/>
				<path class="st12" d="M546.9,467.5c-8.7-15.2-26.1-20.2-41.4-28.9c-4.7-2.8-9.9-5.6-13.7-9.3c-9.3-9.3-14-21.8-16.5-34.8
					c-3.4-18.3-4.4-37-3.4-55.3c2.2-34.2,10.3-68.1,24.3-99.5c10.3-23,23.3-44.8,33-68.1c9.6-23.3,15.9-48.8,11.5-73.7
					c-1.9-9.9-5.3-19.3-10.3-28c0.3,4,2.2,8.7,2.5,11.5c2.8,16.2,3.7,33-0.3,49.1c-3.7,15.5-11.8,29.5-19.9,43.2
					c-29.5,50.1-61.9,100.1-75.6,156.7c-6.8,28.6-8.7,59.1,0.3,87.1c5,15.9,13.7,30.5,23.9,43.5c10.3,13.1,23,24.9,39.2,29.5
					c17.1,5,35.8,0.6,50.7-9.3C550.6,476.2,549.4,471.5,546.9,467.5z"/>
				<g>
					<path class="st5" d="M493.4,430.5c-0.9-0.6-1.9-1.6-2.8-2.5c-5.6-5.6-9-12.4-11.8-19.9c-23,19.6-50.4,33.9-80.2,37.9
						c-16.2,2.2-32.6,1.6-48.5-2.5c7.8,14,16.5,27.7,26.4,40.1c14.6-4.4,29.2-9.6,43.8-14.3c18.7-5.6,37.9-10.6,54.1-21.8
						C481.6,442.9,487.5,437,493.4,430.5z"/>
					<path class="st5" d="M288.2,247.6c1.2,13.1,2.5,25.5,4.7,38.2v0.6c4.4,2.8,9,5,13.7,7.2c15.5,6.2,32.6,7.8,49.4,7.5
						c26.1-0.3,51.9-5,76.5-13.4c12.4-4.4,24.3-9.6,35.4-16.2c6.8-4,14.3-9.3,20.5-14.3c2.5-6.8,5-12.7,7.8-19.3
						c3.1-7.5,6.8-14.6,10.6-21.8c-38.6,31.4-84.9,55-134,57.8c-20.8,1.2-42.6-1.2-61.6-10.3C303.1,259.8,295,254.2,288.2,247.6z"/>
					<path class="st5" d="M432.4,377.6c13.4-6.2,26.1-13.1,38.9-20.8c0-6.5,0.3-13.1,0.6-19.6c0-2.2,0.3-4,0.3-6.2
						c-5.6,4-11.5,7.8-17.4,11.5c-23.9,14-51.3,23.6-79,22.7c-16.8-0.6-33-5.3-48.5-11.5c-6.8-2.8-14-6.2-20.5-9.9
						c5.3,16.8,11.2,33.3,18,49.4c8.4,2.5,17.4,4,26.1,4.7C379.3,398.7,406.9,389.4,432.4,377.6z"/>
				</g>
				<path class="st11" d="M660.4,409c17.4-23.9,27.4-52.5,41-78.7c10.9-20.5,24.3-40.1,42.3-54.7c18-14.6,40.7-24.6,64.1-23.3
					c23.3,0.9,46.3,13.7,56.6,34.5c5.9,11.8,6.8,27.7-2.2,37.6c-1.9,1.9-5,3.4-6.5,1.6c-0.9-0.9-0.9-2.8-0.6-4
					c1.6-18.7-14.3-35.8-32.6-39.5c-18.3-3.7-37.6,3.1-52.2,14.6c-27.4,21.5-41,56-48.8,89.9s-11.2,69-23.3,101.4
					c-5.6,14.9-13.7,29.8-25.8,40.4c-9,7.8-19.6,13.4-31.1,17.1c-21.5,7.2-44.5,9.3-66.9,5.6c-10.6-1.9-21.8-5.3-28.3-14
					c-3.7-5-5.3-11.5-5.9-17.7c-2.5-27.7,16.2-59.7,43.8-67.2c13.7-3.7,26.1-2.8,39.2-9.9C638.3,434.2,650.7,422.4,660.4,409z"/>
				<path class="st12" d="M855,321.6c0,1.6-0.3,3.1,0.6,4c1.2,1.2,2.8,0.9,4.4,0c-1.9-15.5,0.9-32.6-7.2-46c-8.1-13.4-25.2-19-41-18
					c-23.9,1.2-45.7,14.9-61.3,32.6c-15.9,18-25.8,39.8-34.5,62.2c-8.7,22.4-15.5,45.1-26.1,66.5c-3.4,6.8-7.2,13.7-9.3,21.1
					c-1.9,7.5-1.9,15.9,2.2,22.4c4.7,7.5,11.5,9.6,19,9c9-28.9,12.4-59.7,19.3-89.2c7.8-33.9,21.5-68.4,48.8-89.9
					c14.6-11.5,33.9-18.7,52.2-14.6C840.7,285.9,856.6,303,855,321.6z"/>
				<path class="st6" d="M563,77.6c3.7-3.4,8.4-7.2,13.4-5.6c3.7,1.2,5.9,5,7.8,8.4c1.9,3.4,4,6.5,6.2,9.6c1.2,1.9,2.5,3.4,4.4,4.7
					c1.9,1.2,4.4,1.6,6.2,0.3c3.4-2.2,2.5-7.2,0.9-10.9c-3.7-9-8.7-17.7-14.9-25.2c-1.2-1.6-2.8-3.1-4.7-3.7c-1.6-0.3-2.8,0-4.4,0.3
					c-6.2,1.6-12.1,4.7-17.7,7.8c-14.6,8.4-28.6,18-42.3,27.7c-2.5,1.9-5,3.4-6.8,6.2c-2.8,4-3.1,9.3-4,14.3
					c-0.9,4.7-2.8,9.3-5,13.4c-2.2,3.4-6.5,14.6,1.2,9c6.8-4.7,12.4-11.5,18.3-17.1C535.4,103.4,549.4,90.3,563,77.6z"/>
				<g>
					<path class="st6" d="M348.5,110.2c0,16.2-11.5,28.9-25.8,28.9s-25.8-13.1-25.8-28.9s11.5-28.9,25.8-28.9
						C337,81.3,348.5,94.3,348.5,110.2z"/>
					<path class="st7" d="M312.4,131.3c1.9,1.2,3.7,2.5,5.9,2.8c2.2,0.6,4.7,0.3,6.5-0.9s2.8-3.4,1.9-5.3c-1.2-2.5-5-3.1-7.8-4.4
						c-2.8-1.2-5.3-3.4-6.5-5.9c-0.3-0.9-0.6-1.9-1.2-2.5c-0.6-0.6-1.9-1.2-2.8-0.9c-2.2,0.6-2.5,6.2-2.5,8.1
						C306.5,126.4,309.3,129.2,312.4,131.3z"/>
				</g>
				<g>
					<ellipse class="st6" cx="443.3" cy="121.1" rx="25.8" ry="28.9"/>
					<path class="st7" d="M433.1,139.1c1.9,1.2,3.7,2.5,5.9,2.8c2.2,0.6,4.7,0.3,6.5-0.9c1.9-1.2,2.8-3.4,1.9-5.3
						c-1.2-2.5-5-3.1-7.8-4.4c-2.8-1.2-5.3-3.4-6.5-5.9c-0.3-0.9-0.6-1.9-1.2-2.5c-0.6-0.6-1.9-1.2-2.8-0.9
						c-2.2,0.6-2.5,6.2-2.5,8.1C427.2,134.1,430,136.9,433.1,139.1z"/>
				</g>
				<g>
					
						<ellipse transform="matrix(0.7071 -0.7071 0.7071 0.7071 17.3557 242.0369)" class="st8" cx="300.8" cy="100.1" rx="60" ry="60"/>
					<g>
						<path class="st6" d="M300.9,169.9c-38.6,0-69.6-31.4-69.6-69.6c0-38.6,31.4-69.6,69.6-69.6s69.6,31.4,69.6,69.6
							C370.9,138.5,339.5,169.9,300.9,169.9z M300.9,46.8c-29.2,0-53.2,23.9-53.2,53.2s23.9,53.2,53.2,53.2
							c29.2,0,53.2-23.9,53.2-53.2S330.1,46.8,300.9,46.8z"/>
					</g>
					<path class="st9" d="M264.5,76.3c-4.4,7.8-5.9,17.1-5,25.8c0.3,4,1.2,8.4,3.7,11.8c2.5,3.4,6.5,5.6,10.6,5
						c5.9-0.9,9.3-7.2,9.9-13.1c0.6-5.9-0.6-11.8,0-17.7c0.9-7.5,5.6-14.6,12.1-18.7c1.6-0.9,3.4-1.9,5-3.1c1.6-1.2,2.5-3.4,1.9-5.3
						c-0.6-1.9-2.5-3.4-4.4-3.7c-1.9-0.3-4,0-6.2,0.3C280.4,60.1,271.1,65.4,264.5,76.3z"/>
				</g>
				<g>
					<ellipse class="st8" cx="447.5" cy="116.1" rx="60" ry="60"/>
					<g>
						<path class="st6" d="M447.7,186.1c-38.6,0-69.6-31.4-69.6-69.6c0-38.6,31.4-69.6,69.6-69.6s69.6,31.4,69.6,69.6
							S485.9,186.1,447.7,186.1z M447.7,62.9c-29.2,0-53.2,23.9-53.2,53.2s23.9,53.2,53.2,53.2c29.2,0,53.2-23.9,53.2-53.2
							C500.5,86.9,476.9,62.9,447.7,62.9z"/>
					</g>
					<path class="st9" d="M411.3,92.5c-4.4,7.8-5.9,16.8-5,25.8c0.3,4,1.2,8.4,3.7,11.8c2.5,3.4,6.5,5.6,10.6,5
						c5.9-0.9,9.3-7.2,9.9-13.1c0.6-5.9-0.6-11.8,0-17.7c0.9-7.5,5.6-14.6,12.1-18.7c1.6-0.9,3.4-1.9,5-3.1s2.5-3.4,1.9-5.3
						s-2.5-3.4-4.4-3.7c-1.9-0.3-4,0-6.2,0.3C426.8,76.3,417.5,81.6,411.3,92.5z"/>
				</g>
				<path class="st6" d="M369.9,100.2c5.3-0.9,10.6,0,15.2,2.5c1.2,0.9,2.8,1.9,3.4,3.1c0.6,1.6,0.9,3.1,0.9,4.7
					c0,5,0,10.3-0.3,15.2c-2.2-5.3-7.5-9.3-13.4-9.9s-11.8,2.5-14.9,7.5c-0.9,1.6-1.6,3.4-2.8,5c-0.3,0.3-0.6,0.9-1.2,0.6
					c-0.3,0-0.6-0.3-0.6-0.9c-0.6-1.9-0.3-4-0.3-5.9C357.2,110.8,356.6,103.7,369.9,100.2z"/>
				<path class="st6" d="M329.5,164.9c0,0,7.5,14,23,16.5c28.6,4.4,46.3-14.6,47.6-13.4c0.9,1.2-7.2,82.7-45.4,78
					C312.1,241.1,329.5,164.9,329.5,164.9z"/>
				<path class="st13" d="M330.1,225.9c4,10.6,11.5,18.7,24.3,20.2c12.7,1.6,22.1-6.2,28.9-17.7c-0.9-1.9-2.2-3.4-3.7-5
					c-6.2-5.6-16.5-5.3-23.3-0.3c-4.7-5.3-12.7-6.2-19-3.1C334.8,221.2,332.3,223.4,330.1,225.9z"/>
			</g>
			<path class="st14" d="M656,164.6l-0.6-8.4c0,0-7.2,10.9-20.8,17.4c-55.3,26.4-196.8,86.4-214.5,88c0,0-241.9-75.9-259.9-115.4
				c0,0-19,5.6,2.8,50.7s354.8,114.1,356,116c0.9,1.6,88.9-82.1,123.8-115.4C652,188.9,656.9,176.7,656,164.6z"/>
			<path class="st15" d="M142.3,170.5c0-0.6,0.3-0.9,0.3-1.6c0.9-4,5.3-6.2,9.3-4.7l244.7,95.1c2.5,0.9,5,1.9,7.2,3.1l13.7,6.2
				c2.2,0.9,4.7,0.9,6.5-0.3l7.5-4.7c1.2-0.6,3.4-1.9,4.7-2.5l221.4-87.7c2.5-0.9,5-0.6,7.2,1.2l0,0c3.1,2.8,3.1,7.5,0.3,10.3
				L549.4,296.4c-0.9,0.9-2.2,1.6-3.7,1.9l-219.2,38.6c-2.2,0.3-4.4-0.3-5.9-1.6l-176-158C142.7,175.5,141.7,173,142.3,170.5z"/>
			<path class="st16" d="M137.4,167.1l256.2,99.5c1.6,0.6,3.1,1.9,4,3.4c1.6,2.5,6.2,6.5,21.5,6.8c18,0.3,22.4-5.9,23.3-9.9
				c0.6-2.5,2.2-4.7,4.7-5.6l226.7-85.5l2.5,408.3l-212.7,71.2c0,0,1.2,8.7-24.6,9.9c-25.8,1.2-29.5-12.4-29.5-12.4l-232.6-70
				L137.4,167.1z"/>
			<g>
				<polygon class="st17" points="133.3,169.9 174.1,584.1 403.5,651.8 387.7,269.4 				"/>
				<path class="st17" d="M675.9,178.3l-219.5,85.2c0,0-0.6,19.3-31.4,19.9c-16.8,0.3-26.1-5-30.8-8.7l15.9,381.5
					c3.4,4.4,12.1,11.5,29.8,10.6c24.9-1.2,32.6-12.7,32.6-12.7l204.6-69.3L675.9,178.3z"/>
				<path class="st18" d="M390.5,270.3l-2.8-0.9l15.9,382.4l4.4,1.2c0,0,0.6,1.2,2.2,2.8l-15.9-381.5
					C391.4,272.2,390.5,270.3,390.5,270.3z"/>
			</g>
			<g>
				<path class="st18" d="M476.9,652.5l-18.7-389.9l-1.2,0.6l-0.9,0.3c0,0-0.3,5-4,9.6l18,383.4l2.2-2.2c0-0.3,0.3-0.3,0.3-0.3
					L476.9,652.5z"/>
			</g>
		</g>
		<g>
			<path class="st19" d="M247.1,306.1l-16.8-10.3l-70.3,60.6l15.9,11.5l22.1-20.5l13.7,8.4l-9.9,26.4l23,14L247.1,306.1z
				 M208.6,333.1l12.7-14.9l3.4,2.2l-6.5,18.7L208.6,333.1z"/>
			<path class="st19" d="M297.8,411.5c2.5-28-21.1-33.6-28.3-34.8c5,0.3,18-0.6,18.7-20.8c0.9-19-32.3-20.2-32.3-20.2l-9.3,93.6
				C246.5,429.2,295.3,440.4,297.8,411.5z M266.1,363.9l0.9-14.6c0,0,11.2,1.2,10.6,7.2C277,366.4,263.6,363.6,266.1,363.9z
				 M263,418l1.9-27.7c0,0,19.6,1.2,16.8,15.9C278.5,420.8,263,418,263,418z"/>
			<path class="st19" d="M378.7,394.1c0,0,8.7-18-4.7-28.9c-12.4-10.3-24.6-5.6-36.4,7.8c-12.1,13.4-25.2,39.2-14,51.3
				c19.6,21.1,39.5,0,38.6-0.3c-0.9-0.6-6.5-11.2-7.2-11.2c-0.6,0-8.4,9.6-16.8,1.6c-5.9-5.6-0.3-15.5,5.6-24.3
				c6.5-9.9,11.5-14.3,16.8-10.6c5.3,3.7,0.6,9.9,0.6,9.9L378.7,394.1z"/>
			<path class="st19" d="M177.8,414c1.6-0.3,173.5,54.7,173.5,54.7s-0.3,6.2-1.2,5.9c-0.6,0-173.5-54.7-173.5-54.7L177.8,414z"/>
			<path class="st19" d="M175,427.7c0.9-0.9,174.1,52.9,174.1,52.9l-3.1,4.4l-169.5-53.8L175,427.7z"/>
		</g>
		<g>
			<path class="st19" d="M495.6,344l-16.5,5.3v81.8l16.8-4l-0.9-26.4l13.7-4.4l11.8,21.8l22.7-7.2L495.6,344z M491.5,385.4
				l-2.5-17.1l3.4-1.2l8.4,14.9L491.5,385.4z"/>
			<path class="st19" d="M594.8,371.1c-17.1-17.7-34.5-5.3-39.2-1.2c3.1-3.1,9.9-12.1-3.1-24.6c-12.1-11.5-32,9.6-32,9.6l56.6,60
				C577,415.2,612.5,389.4,594.8,371.1z M545,364.9l-9.3-9.3c0,0,7.2-6.5,10.9-2.8C552.8,358.9,543.1,366.4,545,364.9z M579.2,397.8
				l-17.4-17.1c0,0,12.1-12.4,20.2-2.2C589.8,389.1,579.2,397.8,579.2,397.8z"/>
			<path class="st19" d="M629.9,307.3c0,0-6.8-16.2-22.1-13.7c-14,2.2-17.7,13.1-15.9,28.6c1.9,15.5,11.5,39.2,25.8,38.9
				c25.2-0.6,22.7-26.1,22.1-25.8c-0.9,0.3-11.2-2.2-11.5-1.9c-0.3,0.3,1.6,10.9-8.7,11.8c-7.2,0.6-10.6-8.7-13.1-17.7
				c-2.8-10.3-3.1-15.9,2.5-17.4s7.2,5.3,7.2,5.3L629.9,307.3z"/>
			<path class="st19" d="M527.3,452.2c0.6-1.2,136.2-83.6,136.2-83.6s3.7,3.7,3.4,4s-136.2,83.6-136.2,83.6L527.3,452.2z"/>
			<path class="st19" d="M535.1,461.9c0-1.2,135.3-85.2,135.3-85.2l1.2,4.7l-133.1,81.5L535.1,461.9z"/>
		</g>
	</g>
	<g>
		<path class="st6" d="M136.2,721.8c1.2,2.2,1.8,4.9,1.8,8.2c0,8-2.4,12.8-7.2,14.2c-10,3.5-21,5.5-33,6c-3.2,14-9.4,25.2-18.8,33.6
			c-9.3,8.4-19.9,12.6-31.8,12.6c-10,0-18.5-2.4-25.6-7.2C14.5,784.4,9.2,778,5.5,770C1.8,762,0,753.4,0,744c0-12.7,2.4-24,7.2-33.9
			c4.8-9.9,11.5-17.7,20-23.2c8.5-5.6,17.9-8.4,28.2-8.4c12.7,0,22.9,4.4,30.6,13.1s12.3,19.5,13.6,32.4c7.8-0.5,17.2-2.2,28-5
			c1.3-0.3,2.5-0.5,3.5-0.5C133.4,718.5,135.1,719.6,136.2,721.8z M63.1,763.5c3.9-4.3,6.5-10.6,7.9-18.8
			c-5.2-3.5-9.1-8.1-11.9-13.8c-2.8-5.7-4.1-11.7-4.1-18c0-2.7,0.2-5.3,0.8-8h-1.2c-6.7,0-12.2,3.2-16.6,9.6
			c-4.4,6.4-6.6,15.5-6.6,27.1c0,9.2,1.8,16.2,5.4,21c3.6,4.8,7.8,7.2,12.6,7.2C54.6,770,59.2,767.9,63.1,763.5z"/>
		<path class="st6" d="M266.1,742.5c1.2,2,1.9,4.8,1.9,8.2c0,6.7-1.6,11.8-4.8,15.5c-7.5,9.2-15.1,16.5-22.8,22
			c-7.7,5.5-16.8,8.2-27.2,8.2c-12.8,0-23.2-3.7-31-11c-7.8-7.3-11.8-17.1-11.8-29.2c0-6.5,3.3-11.2,10-14
			c7.3-3.2,12.6-6.5,15.8-10.1c3.2-3.6,4.8-8,4.8-13.1c0-3-0.6-5.2-1.9-6.8s-2.8-2.2-4.6-2.2c-4.5,0-9.5,3.2-14.9,9.8
			c-5.4,6.5-10.5,14.9-15.1,25.1c-4.7,10.2-8.3,20.8-11,31.6c-1.8,7.8-4,13.1-6.4,15.9c-2.4,2.8-6.2,4.1-11.4,4.1
			c-5.2,0-9-1.9-11.4-5.6c-2.4-3.8-4-9.5-4.9-17.4c-0.8-7.8-1.2-19.3-1.2-34.5c0-25.7,2.6-52.4,7.9-80.2c5.2-27.8,13-51.2,23.2-70.1
			c10.2-18.9,22.5-28.4,36.9-28.4c7.7,0,13.9,3.3,18.6,9.9c4.8,6.6,7.1,15.1,7.1,25.6c0,16.8-4.9,34.3-14.8,52.4
			c-9.8,18.1-25.8,39.2-48,63.4c-0.5,8.7-0.8,17.6-0.8,26.8c8-20.8,17.2-36,27.5-45.4c10.3-9.4,20-14.1,29-14.1
			c8.3,0,15,2.8,20.1,8.5c5.1,5.7,7.6,12.7,7.6,21c0,9.2-2.3,17.6-7,25.2c-4.7,7.7-12.7,14.5-24,20.5c0.7,4.5,2.7,8.1,6.1,10.9
			c3.4,2.8,7.5,4.1,12.4,4.1c5.2,0,10.2-2,15-6c4.8-4,11.2-10.7,19-20c2-2.3,4.2-3.5,6.8-3.5C263.2,739.5,264.9,740.5,266.1,742.5z
			 M171,597.9c-3.7,8.6-7.2,20.2-10.6,34.8c-3.4,14.6-6.2,30.5-8.4,47.6c10.3-12.2,18.9-25.4,25.6-39.8c6.8-14.3,10.1-27.3,10.1-39
			c0-5.3-0.6-9.4-1.8-12.2c-1.2-2.8-2.8-4.2-5-4.2C178,585,174.7,589.3,171,597.9z"/>
		<path class="st6" d="M254.9,786.1c-4.8-6.9-7.1-15.5-7.1-25.9c0-12.5,0.8-24,2.5-34.4c1.7-10.4,4.4-21.5,8.2-33.1
			c1.7-5,4-8.6,7-10.8c3-2.2,7.8-3.2,14.2-3.2c3.7,0,6.2,0.6,7.6,1.8c1.4,1.2,2.1,2.9,2.1,5.2c0,1.3-0.9,5.8-2.8,13.5
			c-1.7,6.2-3,11.8-4,16.8c-3.3,17.5-5,29.2-5,35c0,3.5,0.4,6,1.2,7.4c0.8,1.4,2.2,2.1,4,2.1c2.5,0,5.6-2.5,9.4-7.5
			s7.8-12.6,12-22.8c4.2-10.2,8.4-22.7,12.4-37.5c1.3-5,3.4-8.6,6.1-10.8c2.8-2.2,6.9-3.2,12.4-3.2c3.8,0,6.5,0.5,8,1.4
			c1.5,0.9,2.2,2.6,2.2,5.1c0,4.2-2.1,15.6-6.2,34.2c-4.7,21.3-7,34.5-7,39.5c0,3.2,0.7,5.6,2,7.4c1.3,1.8,3.1,2.6,5.2,2.6
			c3.3,0,7.3-2,11.9-6.1c4.6-4.1,10.7-10.7,18.4-19.9c2-2.3,4.2-3.5,6.8-3.5c2.2,0,3.9,1,5.1,3s1.9,4.8,1.9,8.2
			c0,6.7-1.6,11.8-4.8,15.5c-7.2,8.8-14.9,16.1-23.1,21.8c-8.2,5.7-17.6,8.5-28.1,8.5c-8,0-13.9-3.1-17.6-9.2
			c-3.8-6.2-5.6-14.8-5.6-26c-2.8,11.3-7.1,20-12.8,26.1c-5.7,6.1-11.8,9.1-18.2,9.1C265.7,796.5,259.6,793.1,254.9,786.1z"/>
		<path class="st6" d="M367.6,786.5c-2.6-6.7-3.9-17.3-3.9-32c0-21.7,3.1-42.2,9.2-61.8c1.5-4.8,4-8.4,7.4-10.6
			c3.4-2.2,8.2-3.4,14.4-3.4c3.3,0,5.7,0.4,7,1.2c1.3,0.8,2,2.4,2,4.8c0,2.7-1.2,8.7-3.8,18c-1.7,6.7-3,12.5-4,17.5
			s-1.8,11.2-2.5,18.5c5.5-14.3,11.7-26,18.5-35c6.8-9,13.5-15.4,20.1-19.2c6.6-3.8,12.6-5.8,18.1-5.8c10.8,0,16.2,5.4,16.2,16.2
			c0,2.2-0.8,7.4-2.2,15.8c-1.3,6.7-2,10.8-2,12.5c0,5.8,2.1,8.8,6.2,8.8c4.7,0,10.7-3.7,18-11c2.2-2.2,4.4-3.2,6.8-3.2
			c2.2,0,3.9,1,5.1,2.9c1.2,1.9,1.9,4.5,1.9,7.6c0,6.2-1.7,11-5,14.5c-4.7,4.8-10.1,9-16.4,12.4c-6.2,3.4-12.9,5.1-19.9,5.1
			c-8.8,0-15.5-2.2-20.1-6.8c-4.6-4.5-6.9-10.6-6.9-18.2c0-2.5,0.2-5,0.8-7.5c0.3-3.3,0.5-5.6,0.5-6.8c0-2.7-0.9-4-2.8-4
			c-2.5,0-5.8,2.8-9.9,8.4c-4.1,5.6-8.1,13-12.1,22.1c-4,9.2-7.2,18.8-9.8,29c-1.8,7.8-4,13.1-6.4,15.9c-2.4,2.8-6.2,4.1-11.4,4.1
			C374.7,796.5,370.2,793.2,367.6,786.5z"/>
		<path class="st6" d="M490.7,785.3c-6.2-7.5-9.2-17.3-9.2-29.5c0-13.3,3.1-26,9.2-37.9c6.2-11.9,14.4-21.5,24.6-28.8
			s21.1-10.9,32.6-10.9c3.7,0,6.1,0.7,7.4,2.1c1.2,1.4,2.3,4,3.1,7.6c3.5-0.7,7.2-1,11-1c8.2,0,12.2,2.9,12.2,8.8
			c0,3.5-1.2,11.8-3.8,25c-3.8,19.2-5.8,32.5-5.8,40c0,2.5,0.6,4.5,1.9,6s2.9,2.2,4.9,2.2c3.2,0,7-2,11.5-6.1
			c4.5-4.1,10.6-10.7,18.2-19.9c2-2.3,4.2-3.5,6.8-3.5c2.2,0,3.9,1,5.1,3s1.9,4.8,1.9,8.2c0,6.7-1.6,11.8-4.8,15.5
			c-6.8,8.5-14.1,15.7-21.8,21.5c-7.7,5.8-15.1,8.8-22.2,8.8c-5.5,0-10.5-1.9-15.1-5.6c-4.6-3.8-8-8.9-10.4-15.4
			c-8.7,14-19.6,21-32.8,21C505.1,796.5,496.9,792.8,490.7,785.3z M535,764.8c3.3-4.3,5.8-10.1,7.2-17.2l9.2-46
			c-7,0.2-13.5,2.8-19.4,7.9c-5.9,5.1-10.6,11.8-14.1,20.1c-3.5,8.3-5.2,17.2-5.2,26.5c0,5.2,1,9,3.1,11.5c2.1,2.5,5,3.8,8.6,3.8
			C528.1,771.3,531.6,769.1,535,764.8z"/>
		<path class="st6" d="M740.9,742.5c1.2,2,1.9,4.8,1.9,8.2c0,6.7-1.6,11.8-4.8,15.5c-7.2,8.8-14.9,16.1-23.1,21.8
			c-8.2,5.7-17.6,8.5-28.1,8.5c-8.8,0-16-3.2-21.5-9.5c-9.5,6.2-19.4,9.3-29.8,9.5c-2.2,32.2-7.1,59-14.8,80.6
			c-7.7,21.6-18.9,32.4-33.8,32.4c-9,0-15.7-3.2-20-9.8c-4.3-6.5-6.5-15.5-6.5-27c0-16.3,3.8-35.4,11.2-57.1s19.1-45.7,34.8-71.9
			c0-24.3-0.2-41.2-0.5-50.8c-0.2-4.8,1.8-8.7,5.8-11.5c4-2.8,9-4.2,15-4.2c3.5,0,6,0.7,7.6,2.1c1.6,1.4,2.5,4.2,2.6,8.4
			c0,4.2,0.1,7.2,0.2,9.2c5.3-6.7,10.6-11.5,15.8-14.4c5.2-2.9,10.7-4.4,16.5-4.4c9.3,0,17,3.8,22.9,11.2c5.9,7.5,8.9,17.3,8.9,29.5
			c0,8.8-1.4,17.4-4.2,25.8c-2.8,8.3-6.8,15.9-11.8,22.8c3.5,1,6.4,1.5,8.8,1.5c5.5,0,10.8-2,15.8-6s11.4-10.7,19.2-20
			c2-2.3,4.2-3.5,6.8-3.5C737.9,739.5,739.6,740.5,740.9,742.5z M600.2,855.6c3-19.6,4.9-44,5.8-73.1c-7.2,16.7-12.8,32.6-17,47.8
			c-4.2,15.2-6.2,27.9-6.2,38.2c0,5.3,0.6,9.4,1.9,12.2c1.2,2.8,2.7,4.2,4.4,4.2C593.5,885,597.2,875.2,600.2,855.6z M653.4,762.6
			c5.1-5.2,9.1-11.8,12.1-19.5s4.5-15.9,4.5-24.4c0-5-1-8.8-3-11.4c-2-2.6-4.7-3.9-8-3.9c-6,0-13.2,6.3-21.8,19
			c-0.2,7.3-0.2,18.1-0.2,32.2c0,7.7-0.1,13.6-0.2,17.8C642.7,771.2,648.3,767.9,653.4,762.6z"/>
		<path class="st6" d="M861.1,742.5c1.2,2,1.9,4.8,1.9,8.2c0,6.7-1.6,11.8-4.8,15.5c-7.2,8.8-14.9,16.1-23.1,21.8
			c-8.2,5.7-17.6,8.5-28.1,8.5c-8.8,0-16-3.2-21.5-9.5c-9.5,6.2-19.4,9.3-29.8,9.5c-2.2,32.2-7.1,59-14.8,80.6
			c-7.7,21.6-18.9,32.4-33.8,32.4c-9,0-15.7-3.2-20-9.8c-4.3-6.5-6.5-15.5-6.5-27c0-16.3,3.8-35.4,11.2-57.1s19.1-45.7,34.8-71.9
			c0-24.3-0.2-41.2-0.5-50.8c-0.2-4.8,1.8-8.7,5.8-11.5c4-2.8,9-4.2,15-4.2c3.5,0,6,0.7,7.6,2.1c1.6,1.4,2.5,4.2,2.6,8.4
			c0,4.2,0.1,7.2,0.2,9.2c5.3-6.7,10.6-11.5,15.8-14.4c5.2-2.9,10.7-4.4,16.5-4.4c9.3,0,17,3.8,22.9,11.2c5.9,7.5,8.9,17.3,8.9,29.5
			c0,8.8-1.4,17.4-4.2,25.8c-2.8,8.3-6.8,15.9-11.8,22.8c3.5,1,6.4,1.5,8.8,1.5c5.5,0,10.8-2,15.8-6s11.4-10.7,19.2-20
			c2-2.3,4.2-3.5,6.8-3.5C858.1,739.5,859.8,740.5,861.1,742.5z M720.5,855.6c3-19.6,4.9-44,5.8-73.1c-7.2,16.7-12.8,32.6-17,47.8
			c-4.2,15.2-6.2,27.9-6.2,38.2c0,5.3,0.6,9.4,1.9,12.2c1.2,2.8,2.7,4.2,4.4,4.2C713.7,885,717.5,875.2,720.5,855.6z M773.6,762.6
			c5.1-5.2,9.1-11.8,12.1-19.5s4.5-15.9,4.5-24.4c0-5-1-8.8-3-11.4c-2-2.6-4.7-3.9-8-3.9c-6,0-13.2,6.3-21.8,19
			c-0.2,7.3-0.2,18.1-0.2,32.2c0,7.7-0.1,13.6-0.2,17.8C763,771.2,768.5,767.9,773.6,762.6z"/>
	</g>
</g>
</svg>
