<?xml version="1.0" encoding="utf-8"?>
<!-- Generator: Adobe Illustrator 28.2.0, SVG Export Plug-In . SVG Version: 6.00 Build 0)  -->
<svg version="1.1" id="katman_1" xmlns="http://www.w3.org/2000/svg" xmlns:xlink="http://www.w3.org/1999/xlink" x="0px" y="0px"
	 viewBox="0 0 863.5 841.2" style="enable-background:new 0 0 863.5 841.2;" xml:space="preserve">
<style type="text/css">
	.st0{fill:#99AD65;}
	.st1{fill:#909E5E;}
	.st2{fill:#879659;}
	.st3{fill:#141414;}
	.st4{fill:#FFFFFF;}
	.st5{fill:#EA5242;}
	.st6{fill:#262728;}
</style>
<g>
	<g>
		<g>
			<path class="st0" d="M2204.6,574.7c5.7-24.6,9.6-39.6,15.3-64.2s15.6-49.7,35.5-65.3c10.7-8.4,24.7-13.5,38-10.7
				s24.8,15.2,23.7,28.8c-0.1,1.7-0.4,3.8,3.1,3.9c8.9-6.8,8.5-19.8,3.7-29.3c-7.5-15.1-24.4-24.4-41.2-25.1
				c-16.9-0.7-33.5,6.3-46.5,17s-22.8,24.9-30.7,39.9c-10,19.1-17.3,39.7-29.9,57.1c-7,9.7-15.4,19.9-26.7,24
				c-39.1,20.7-88.2-4-88.2-4c-3-1.8-5.9-3.7-8.3-6.2c-6.7-6.7-9.8-16.3-11.5-25.6c-2.6-13.3-3-26.9-2.2-40.3
				c1.5-24.9,7.5-49.6,17.6-72.4c7.4-16.8,16.9-32.5,23.9-49.4s11.6-35.5,8.3-53.5c-4.1-22.6-20.6-41.9-41.2-52
				c-23.3-11.5-97.4-21-130.1,31.1c-13.9,22.2-13.7,50.2-13.8,76.4c-0.1,27.8,0.8,55.7,5.5,83.1c6.1,36.1,18.7,70.9,35.4,103.4
				c13.3,26.1,30.2,51.7,55.1,67.1c18.5,16,111.5,19.2,138.8,19.8c5.6,0.1,11.2-0.9,16.5-3C2167.6,620,2193.4,598.2,2204.6,574.7z"
				/>
			<path class="st1" d="M2317.1,463.3c-0.1,1-0.2,2.2,0.5,3c0.8,0.9,2.1,0.7,3.2,0.1c-1.3-11.4,0.8-23.8-5.1-33.5
				s-18.4-13.7-29.7-13.1c-17.3,1-33.2,10.8-44.6,23.8c-11.4,13-18.9,29-25.1,45.2s-11.4,32.8-19,48.3c-2.5,5.1-5.2,10-6.7,15.5
				c-1.4,5.4-1.4,11.5,1.6,16.4c3.3,5.5,7,6.7,12.6,6.3c6.6-21.1,10.3-43.1,15.3-64.7c5.7-24.6,15.6-49.7,35.5-65.3
				c10.7-8.4,24.7-13.5,38-10.7C2306.7,437.3,2318.2,449.8,2317.1,463.3z"/>
			<path class="st1" d="M2093.1,569.2c-6.3-11.1-18.9-14.7-30.1-21c-3.4-1.9-7.3-4.1-10-6.9c-6.7-6.7-10.3-15.9-12.1-25.2
				c-2.6-13.3-3.2-26.9-2.4-40.3c1.5-24.9,7.5-49.6,17.6-72.4c7.4-16.8,16.9-32.5,23.9-49.4s11.6-35.5,8.3-53.5
				c-1.3-7.2-3.9-14-7.4-20.3c0.2,2.9,1.5,6.3,1.9,8.4c2.1,11.8,2.7,24-0.2,35.6c-2.8,11.2-8.6,21.4-14.5,31.3
				c-21.6,36.4-45.1,72.8-55,113.9c-5,20.8-6.3,43,0.3,63.4c3.7,11.5,9.9,22.2,17.4,31.7s16.8,18.1,28.4,21.4
				c12.4,3.5,25.9,0.4,36.7-6.8C2095.8,575.7,2094.9,572.3,2093.1,569.2z"/>
			<g>
				<path class="st2" d="M2054.2,542.4c-0.7-0.6-1.4-1.2-2-1.8c-4-4-6.6-9-8.6-14.4c-16.8,14.3-36.7,24.5-58.4,27.7
					c-11.7,1.7-23.8,1-35.3-1.8c5.7,10.2,12,20.1,19.3,29.1c10.7-3.3,21.3-7.1,32-10.4c13.6-4.2,27.7-7.7,39.3-15.8
					C2045.7,551.4,2050.1,547.1,2054.2,542.4z"/>
				<path class="st2" d="M1905.1,409.6c0.8,9.4,1.9,18.5,3.5,27.8c0,0,0.1,0.4,0.1,0.5c3.1,2,6.5,3.7,9.9,5.1
					c11.3,4.5,23.7,5.7,35.9,5.5c18.9-0.3,37.7-3.6,55.6-9.8c9-3.1,17.7-6.9,25.9-11.8c5.1-3,10.3-6.8,15-10.4
					c1.8-4.9,3.6-9.3,5.7-14.1c2.3-5.3,5-10.7,7.7-15.9c-28,22.9-61.7,39.9-97.5,42.2c-15.2,1-30.9-0.9-44.7-7.4
					C1915.9,418.3,1910,414.3,1905.1,409.6z"/>
				<path class="st2" d="M2010,504c9.7-4.5,19-9.5,28.2-15.1c-0.1-4.7,0.2-9.6,0.5-14.3c0.1-1.5,0.2-3,0.3-4.5
					c-4.1,2.9-8.4,5.7-12.7,8.3c-17.4,10.3-37.3,17.2-57.5,16.4c-12.1-0.5-24-3.7-35.2-8.3c-5.1-2.1-10.2-4.5-14.9-7.2
					c3.8,12.2,8.2,24.2,13.2,35.9c6.1,1.9,12.6,3,19,3.3C1971.3,519.3,1991.4,512.6,2010,504z"/>
			</g>
			<g>
				<path class="st3" d="M2004.9,304.2c-4,12.9-16.5,20.3-28,16.8c-11.5-3.6-17.5-16.9-13.5-29.7c4-12.8,16.5-20.3,28-16.8
					C2002.9,278.1,2008.9,291.4,2004.9,304.2z"/>
				<path class="st4" d="M1977.7,282.6c-1.5,1.1-2.9,2.5-3.9,4.1c-1,1.6-1.4,3.7-0.9,5.6c0.5,1.8,2.1,3.1,3.9,2.9
					c2.3-0.3,3.7-3.1,5.4-5.1c1.7-2.1,4.1-3.4,6.5-3.7c0.8-0.1,1.6-0.1,2.3-0.4c0.7-0.3,1.4-1.1,1.4-1.9c0-2-4.5-3.5-5.9-3.9
					C1983.2,279.2,1980.2,280.7,1977.7,282.6z"/>
			</g>
			<path class="st3" d="M1939.9,369.6c0,0,4.8,9.1,14.9,10.6c18.5,2.7,29.9-9.4,30.6-8.6c0.7,0.7-4.7,53.3-29.3,50.4
				C1928.8,418.7,1939.9,369.6,1939.9,369.6z"/>
			<path class="st5" d="M1940.3,408.9c2.6,6.8,7.3,12.1,15.7,13.1c8.1,1,14.2-4.1,18.6-11.4c-0.6-1.2-1.4-2.3-2.4-3.1
				c-4-3.6-10.5-3.3-15-0.2c-2.9-3.4-8.3-4-12.3-2.1C1943.2,405.9,1941.7,407.2,1940.3,408.9z"/>
		</g>
	</g>
</g>
<g>
	<path d="M2175.7,311.4c1.1,1.7,1.6,4.1,1.6,7.1c0,5.8-1.4,10.2-4.1,13.4c-6.5,7.9-13.1,14.3-19.7,19c-6.6,4.8-14.5,7.1-23.6,7.1
		c-11.1,0-20.1-3.2-26.8-9.5c-6.8-6.3-10.2-14.8-10.2-25.3c0-5.6,2.9-9.7,8.7-12.1c6.3-2.7,10.9-5.7,13.6-8.8
		c2.7-3.1,4.1-6.9,4.1-11.4c0-2.6-0.5-4.5-1.6-5.8c-1.1-1.3-2.4-1.9-4-1.9c-3.9,0-8.2,2.8-12.9,8.4c-4.7,5.6-9.1,12.9-13.1,21.8
		c-4,8.9-7.2,18-9.5,27.4c-1.6,6.8-3.4,11.4-5.5,13.7c-2.1,2.4-5.4,3.6-9.8,3.6c-4.5,0-7.8-1.6-9.9-4.9c-2.1-3.2-3.5-8.3-4.2-15
		c-0.7-6.8-1.1-16.7-1.1-29.9c0-22.2,2.3-45.4,6.8-69.5c4.5-24.1,11.3-44.3,20.1-60.7c8.9-16.4,19.5-24.6,31.9-24.6
		c6.6,0,12,2.9,16.1,8.6c4.1,5.7,6.2,13.1,6.2,22.2c0,14.6-4.3,29.7-12.8,45.4c-8.5,15.7-22.4,34-41.6,54.9
		c-0.4,7.5-0.6,15.2-0.6,23.2c6.9-18,14.9-31.1,23.8-39.3c8.9-8.2,17.3-12.2,25.1-12.2c7.2,0,13,2.5,17.4,7.4
		c4.4,4.9,6.6,11,6.6,18.2c0,7.9-2,15.2-6.1,21.9c-4,6.6-11,12.6-20.8,17.8c0.6,3.9,2.3,7,5.3,9.4c3,2.4,6.5,3.6,10.7,3.6
		c4.5,0,8.8-1.7,13-5.2c4.2-3.5,9.7-9.2,16.5-17.3c1.7-2,3.7-3,5.8-3C2173.1,308.8,2174.6,309.7,2175.7,311.4z M2093.3,186.1
		c-3.2,7.4-6.2,17.5-9.2,30.1c-3,12.6-5.4,26.4-7.3,41.2c8.9-10.5,16.3-22,22.2-34.4c5.8-12.4,8.8-23.7,8.8-33.8
		c0-4.6-0.5-8.2-1.5-10.6c-1-2.5-2.5-3.7-4.3-3.7C2099.4,175,2096.5,178.7,2093.3,186.1z"/>
	<path d="M2165.9,349.2c-4.1-6-6.2-13.5-6.2-22.4c0-10.8,0.7-20.7,2.2-29.8c1.4-9,3.8-18.6,7.1-28.7c1.4-4.3,3.5-7.4,6.1-9.3
		c2.6-1.9,6.7-2.8,12.3-2.8c3.2,0,5.4,0.5,6.6,1.5c1.2,1,1.8,2.5,1.8,4.5c0,1.2-0.8,5.1-2.4,11.7c-1.4,5.3-2.6,10.2-3.5,14.5
		c-2.9,15.2-4.3,25.3-4.3,30.3c0,3,0.4,5.2,1.1,6.4c0.7,1.2,1.9,1.8,3.5,1.8c2.2,0,4.9-2.2,8.1-6.5c3.2-4.3,6.7-10.9,10.4-19.7
		c3.7-8.8,7.3-19.6,10.7-32.5c1.2-4.3,2.9-7.4,5.3-9.3c2.4-1.9,6-2.8,10.7-2.8c3.3,0,5.6,0.4,6.9,1.2c1.3,0.8,1.9,2.3,1.9,4.4
		c0,3.6-1.8,13.5-5.4,29.7c-4,18.5-6.1,29.9-6.1,34.2c0,2.7,0.6,4.9,1.7,6.4c1.2,1.5,2.7,2.3,4.5,2.3c2.9,0,6.3-1.8,10.3-5.3
		c4-3.5,9.3-9.3,15.9-17.2c1.7-2,3.7-3,5.8-3c1.9,0,3.4,0.9,4.4,2.6c1.1,1.7,1.6,4.1,1.6,7.1c0,5.8-1.4,10.2-4.1,13.4
		c-6.2,7.7-12.9,13.9-20,18.8c-7.1,4.9-15.3,7.4-24.4,7.4c-6.9,0-12-2.7-15.3-8c-3.2-5.3-4.9-12.8-4.9-22.5
		c-2.5,9.8-6.1,17.4-11,22.6c-4.9,5.3-10.2,7.9-15.8,7.9C2175.3,358.1,2170,355.1,2165.9,349.2z"/>
	<path d="M2263.6,349.5c-2.2-5.8-3.4-15-3.4-27.7c0-18.8,2.7-36.6,8-53.5c1.3-4.2,3.4-7.3,6.4-9.2c3-1.9,7.1-2.9,12.4-2.9
		c2.9,0,4.9,0.4,6.1,1.1c1.2,0.7,1.7,2.1,1.7,4.1c0,2.3-1.1,7.5-3.2,15.6c-1.4,5.8-2.6,10.8-3.5,15.2c-0.9,4.3-1.6,9.7-2.2,16
		c4.8-12.4,10.1-22.5,16-30.3c5.9-7.8,11.7-13.3,17.4-16.7c5.7-3.3,10.9-5,15.7-5c9.4,0,14.1,4.7,14.1,14.1c0,1.9-0.6,6.4-1.9,13.6
		c-1.2,5.8-1.7,9.4-1.7,10.8c0,5.1,1.8,7.6,5.4,7.6c4,0,9.2-3.2,15.6-9.5c1.9-1.9,3.8-2.8,5.8-2.8c1.9,0,3.4,0.8,4.4,2.5
		c1.1,1.7,1.6,3.9,1.6,6.6c0,5.3-1.4,9.5-4.3,12.6c-4,4.2-8.8,7.8-14.2,10.7c-5.4,3-11.1,4.4-17.2,4.4c-7.7,0-13.5-1.9-17.4-5.8
		c-4-3.9-6-9.2-6-15.8c0-2.2,0.2-4.3,0.6-6.5c0.3-2.9,0.4-4.8,0.4-5.8c0-2.3-0.8-3.5-2.4-3.5c-2.2,0-5,2.4-8.6,7.3
		c-3.5,4.8-7,11.2-10.5,19.2c-3.5,7.9-6.3,16.3-8.4,25.1c-1.6,6.8-3.4,11.4-5.5,13.7c-2.1,2.4-5.4,3.6-9.8,3.6
		C2269.7,358.1,2265.8,355.3,2263.6,349.5z"/>
	<g>
		<path d="M2083.2,257.9c-6.3,4.5-13.3,8.3-21,11.5c-7.7,3.1-14.6,4.7-20.5,4.7c-1.4,0-2.4-0.1-3-0.3v-0.3
			c0-28.7-11.5-43.1-34.5-43.1c-16.9,0-30.9,5.4-42,16.3c-11.1,10.9-19.2,23.8-24.3,38.7c-5,14.9-7.5,28.5-7.5,40.7
			c0,14.7,3.9,25.5,11.6,32.3c7.7,6.8,18.2,10.2,31.5,10.2c11,0,21.1-3.3,30.5-10c9.3-6.6,17-16.1,22.9-28.3
			c5.9-12.2,5.7-11.3,9.4-27.9c9.9-1.6,25.2-11.3,31.2-19.5c8.4-3.9,13-12.2,18.2-17.7L2083.2,257.9z M2012.7,310.1
			c-8.7,21.9-28,34.8-43.2,28.8c-15.2-6-20.5-28.7-11.8-50.6c8.7-21.9,28-34.8,43.2-28.8C2016.1,265.5,2021.4,288.1,2012.7,310.1z"
			/>
	</g>
</g>
<g>
	<g>
		<g>
			<g>
				<path class="st0" d="M631,519.8c8.6-37.2,14.5-59.9,23.1-97.2c8.6-37.2,23.6-75.3,53.8-98.9c16.2-12.7,37.4-20.4,57.5-16.2
					c20.1,4.2,37.6,23,35.9,43.6c-0.2,2.6-0.6,5.8,4.7,5.9c13.5-10.3,12.9-30,5.6-44.4c-11.4-22.9-36.9-36.9-62.4-38
					c-25.6-1.1-50.7,9.5-70.4,25.7c-19.7,16.2-34.5,37.7-46.5,60.4c-15.1,28.9-26.2,60.1-45.3,86.5c-10.6,14.7-23.3,30.1-40.4,36.3
					c-59.2,31.3-133.5-6.1-133.5-6.1c-4.5-2.7-8.9-5.6-12.6-9.4c-10.1-10.1-14.8-24.7-17.4-38.8c-3.9-20.1-4.5-40.7-3.3-61
					c2.3-37.7,11.4-75.1,26.6-109.6c11.2-25.4,25.6-49.2,36.2-74.8c10.6-25.6,17.6-53.8,12.6-81C449,68.7,424,39.5,392.8,24.2
					c-35.3-17.4-147.5-31.8-197,47.1c-21,33.6-20.7,76-20.9,115.7c-0.2,42.1,1.2,84.3,8.3,125.8c9.2,54.7,28.3,107.4,53.6,156.6
					c20.1,39.5,45.7,78.3,83.4,101.6c28,24.2,168.8,29.1,210.2,30c8.5,0.2,17-1.4,25-4.5C574.9,588.4,614.1,555.4,631,519.8z"/>
				<path class="st1" d="M801.3,351.1c-0.2,1.5-0.3,3.3,0.8,4.5c1.2,1.4,3.2,1.1,4.8,0.2c-2-17.3,1.2-36-7.7-50.7
					c-8.9-14.7-27.9-20.7-45-19.8c-26.2,1.5-50.3,16.4-67.5,36c-17.3,19.7-28.6,43.9-38,68.4c-9.4,24.5-17.3,49.7-28.8,73.1
					c-3.8,7.7-7.9,15.1-10.1,23.5c-2.1,8.2-2.1,17.4,2.4,24.8c5,8.3,10.5,10.2,19,9.6c10-31.9,15.6-65.3,23.2-98
					c8.6-37.2,23.6-75.3,53.8-98.9c16.2-12.7,37.4-20.4,57.5-16.2C785.6,311.8,803,330.7,801.3,351.1z"/>
				<path class="st1" d="M462.1,511.5c-9.5-16.8-28.6-22.3-45.6-31.8c-5.1-2.9-11.1-6.2-15.1-10.4c-10.1-10.1-15.6-24.1-18.3-38.2
					c-3.9-20.1-4.8-40.7-3.6-61c2.3-37.7,11.4-75.1,26.6-109.6c11.2-25.4,25.6-49.2,36.2-74.8c10.6-25.6,17.6-53.8,12.6-81
					c-2-10.9-5.9-21.2-11.2-30.7c0.3,4.4,2.3,9.5,2.9,12.7c3.2,17.9,4.1,36.3-0.3,53.9c-4.2,17-13,32.4-22,47.4
					C391.6,243,356,298.1,341,360.4c-7.6,31.5-9.5,65.1,0.5,96c5.6,17.4,15,33.6,26.3,48c11.4,14.4,25.4,27.4,43,32.4
					c18.8,5.3,39.2,0.6,55.6-10.3C466.2,521.3,464.9,516.2,462.1,511.5z"/>
				<g>
					<path class="st2" d="M403.2,470.9c-1.1-0.9-2.1-1.8-3-2.7c-6.1-6.1-10-13.6-13-21.8c-25.4,21.7-55.6,37.1-88.4,41.9
						c-17.7,2.6-36,1.5-53.4-2.7c8.6,15.4,18.2,30.4,29.2,44.1c16.2-5,32.3-10.8,48.5-15.7c20.6-6.4,41.9-11.7,59.5-23.9
						C390.4,484.5,397,478,403.2,470.9z"/>
					<path class="st2" d="M177.5,269.8c1.2,14.2,2.9,28,5.3,42.1c0,0,0.2,0.6,0.2,0.8c4.7,3,9.8,5.6,15,7.7
						c17.1,6.8,35.9,8.6,54.4,8.3c28.6-0.5,57.1-5.5,84.2-14.8c13.6-4.7,26.8-10.4,39.2-17.9c7.7-4.5,15.6-10.3,22.7-15.7
						c2.7-7.4,5.5-14.1,8.6-21.3c3.5-8,7.6-16.2,11.7-24.1c-42.4,34.7-93.4,60.4-147.6,63.9c-23,1.5-46.8-1.4-67.7-11.2
						C193.8,283,184.9,276.9,177.5,269.8z"/>
					<path class="st2" d="M336.3,412.8c14.7-6.8,28.8-14.4,42.7-22.9c-0.2-7.1,0.3-14.5,0.8-21.7c0.2-2.3,0.3-4.5,0.5-6.8
						c-6.2,4.4-12.7,8.6-19.2,12.6c-26.3,15.6-56.5,26-87.1,24.8c-18.3-0.8-36.3-5.6-53.3-12.6c-7.7-3.2-15.4-6.8-22.6-10.9
						c5.8,18.5,12.4,36.6,20,54.4c9.2,2.9,19.1,4.5,28.8,5C277.7,435.9,308.2,425.8,336.3,412.8z"/>
				</g>
				<g>
					<path class="st3" d="M237,120.4c0,16.5-11.8,29.7-26.5,29.7S184,136.7,184,120.4s11.8-29.7,26.5-29.7
						C225.2,90.7,237,104,237,120.4z"/>
					<path class="st4" d="M197.5,105.1c-1.4,1.8-2.4,3.9-3,6.2c-0.6,2.3-0.3,4.8,0.9,6.8c1.2,2,3.6,2.9,5.6,2c2.6-1.2,3.2-5,4.4-7.9
						c1.2-3,3.5-5.5,6.2-6.7c0.9-0.5,1.8-0.8,2.6-1.4c0.8-0.6,1.2-1.8,0.9-2.7c-0.8-2.3-6.5-2.4-8.3-2.4
						C202.6,99,199.7,101.9,197.5,105.1z"/>
				</g>
				<g>
					<ellipse class="st3" cx="348.1" cy="130.4" rx="28.5" ry="31.9"/>
					<path class="st4" d="M334.2,113.9c-1.4,2-2.6,4.2-3.2,6.7c-0.6,2.4-0.5,5.3,0.9,7.3c1.4,2.1,3.9,3.2,5.9,2.1
						c2.7-1.4,3.3-5.3,4.7-8.5c1.4-3.2,3.8-5.8,6.7-7.1c0.9-0.5,2-0.8,2.7-1.5c0.8-0.8,1.4-1.8,1.1-2.9c-0.8-2.4-7-2.7-8.9-2.6
						C339.6,107.4,336.5,110.4,334.2,113.9z"/>
				</g>
				<path class="st3" d="M225.5,185.8c0,0,7.3,13.8,22.6,16.1c28,4.1,45.3-14.2,46.3-13c1.1,1.1-7.1,80.7-44.4,76.3
					C208.7,260.1,225.5,185.8,225.5,185.8z"/>
				<path class="st5" d="M226.1,245.3c3.9,10.3,11.1,18.3,23.8,19.8c12.3,1.5,21.5-6.2,28.2-17.3c-0.9-1.8-2.1-3.5-3.6-4.7
					c-6.1-5.5-15.9-5-22.7-0.3c-4.4-5.1-12.6-6.1-18.6-3.2C230.5,240.8,228.2,242.7,226.1,245.3z"/>
			</g>
		</g>
		<g>
			<g>
				<path class="st6" d="M303.3,85.2c-11.7,4.7-22.1,7.1-31,7.1c-2.1,0-3.6-0.2-4.5-0.5v-0.5c0-43.5-17.4-65.3-52.2-65.3
					c-25.6,0-46.8,8.2-63.6,24.7s-29.1,36-36.8,58.6c-7.6,22.6-11.4,43.2-11.4,61.6c0,22.3,5.9,38.6,17.6,48.9
					c11.7,10.3,27.6,15.4,47.7,15.4c16.7,0,31.9-5,46.2-15.1c14.1-10,25.7-24.4,34.7-42.9c8.9-18.5,14.5-40.1,16.7-64.8
					c15-2.4,23-6.5,35.7-12.4s11.5-17,19.5-25.4l3.9-12C316,69.8,315,80.6,303.3,85.2z M237,147.9c-16.4,41.3-52.2,66-79.9,55
					c-27.9-11.1-37.1-53.4-20.7-94.8s52.2-66,79.9-55C244,64,253.3,106.4,237,147.9z"/>
			</g>
			<g>
				<path class="st6" d="M514.2,68c-9.5,6.8-20.1,12.6-31.8,17.4c-11.7,4.7-22.1,7.1-31,7.1c-2.1,0-3.6-0.2-4.5-0.5v-0.5
					c0-43.5-17.4-65.3-52.2-65.3c-25.6,0-46.8,8.2-63.6,24.7c-16.8,16.5-29.1,36-36.8,58.6c-7.6,22.6-11.4,43.2-11.4,61.6
					c0,22.3,5.9,38.6,17.6,48.9c11.7,10.3,27.6,15.4,47.7,15.4c16.7,0,31.9-5,46.2-15.1c14.1-10,25.7-24.4,34.7-42.9
					c8.9-18.5,14.5-40.1,16.7-64.8c15-2.4,28.8-6.7,41.5-12.4c12.7-5.9,22.9-13,30.7-21.3L514.2,68z M415.1,150.1
					c-15.6,39.2-50.1,62.4-77.4,51.6c-27.3-10.8-36.6-51.3-21-90.5c15.6-39.2,50.1-62.4,77.4-51.6
					C421.1,70.1,430.6,110.7,415.1,150.1z"/>
			</g>
		</g>
		<path class="st6" d="M314.2,59.2c0.5-5.1,2.1-10.1,4.7-14.7C327.2,30,349.2,0,387.6,0c50.7,0,70.3,33.9,70.3,33.9
			s-44.8-33.5-81.6-18.8s-63,52.7-63,52.7L314.2,59.2z"/>
		<path class="st6" d="M279.7,59.2c-0.6-5.1-2.1-10.3-4.7-14.8C266.5,29.8,244.7,0,206.4,0c-50.7,0-70.3,33.9-70.3,33.9
			s44.7-33.6,81.5-18.8s63.1,52.7,63.1,52.7L279.7,59.2z"/>
	</g>
	<g>
		<path class="st6" d="M144.5,653.5c1.2,2.2,1.8,4.9,1.8,8.2c0,8-2.4,12.8-7.2,14.2c-10,3.5-21,5.5-33,6c-3.2,14-9.4,25.2-18.8,33.6
			c-9.3,8.4-19.9,12.6-31.8,12.6c-10,0-18.5-2.4-25.6-7.2c-7.1-4.8-12.5-11.2-16.1-19.2c-3.7-8-5.5-16.7-5.5-26
			c0-12.7,2.4-24,7.2-33.9c4.8-9.9,11.5-17.7,20-23.2c8.5-5.6,17.9-8.4,28.2-8.4c12.7,0,22.9,4.4,30.6,13.1s12.3,19.5,13.6,32.4
			c7.8-0.5,17.2-2.2,28-5c1.3-0.3,2.5-0.5,3.5-0.5C141.7,650.2,143.3,651.3,144.5,653.5z M71.4,695.2c3.9-4.3,6.5-10.6,7.9-18.8
			c-5.2-3.5-9.1-8.1-11.9-13.8c-2.8-5.7-4.1-11.7-4.1-18c0-2.7,0.2-5.3,0.8-8h-1.2c-6.7,0-12.2,3.2-16.6,9.6
			c-4.4,6.4-6.6,15.5-6.6,27.1c0,9.2,1.8,16.2,5.4,21c3.6,4.8,7.8,7.2,12.6,7.2C62.8,701.7,67.5,699.6,71.4,695.2z"/>
		<path class="st6" d="M274.4,674.2c1.2,2,1.9,4.8,1.9,8.2c0,6.7-1.6,11.8-4.8,15.5c-7.5,9.2-15.1,16.5-22.8,22
			c-7.7,5.5-16.8,8.2-27.2,8.2c-12.8,0-23.2-3.7-31-11c-7.8-7.3-11.8-17.1-11.8-29.2c0-6.5,3.3-11.2,10-14
			c7.3-3.2,12.6-6.5,15.8-10.1c3.2-3.6,4.8-8,4.8-13.1c0-3-0.6-5.2-1.9-6.8s-2.8-2.2-4.6-2.2c-4.5,0-9.5,3.2-14.9,9.8
			c-5.4,6.5-10.5,14.9-15.1,25.1c-4.7,10.2-8.3,20.8-11,31.6c-1.8,7.8-4,13.1-6.4,15.9c-2.4,2.8-6.2,4.1-11.4,4.1
			c-5.2,0-9-1.9-11.4-5.6c-2.4-3.8-4-9.5-4.9-17.4c-0.8-7.8-1.2-19.3-1.2-34.5c0-25.7,2.6-52.4,7.9-80.2c5.2-27.8,13-51.2,23.2-70.1
			c10.2-18.9,22.5-28.4,36.9-28.4c7.7,0,13.9,3.3,18.6,9.9c4.8,6.6,7.1,15.1,7.1,25.6c0,16.8-4.9,34.3-14.8,52.4
			c-9.8,18.1-25.8,39.2-48,63.4c-0.5,8.7-0.8,17.6-0.8,26.8c8-20.8,17.2-36,27.5-45.4c10.3-9.4,20-14.1,29-14.1
			c8.3,0,15,2.8,20.1,8.5c5.1,5.7,7.6,12.7,7.6,21c0,9.2-2.3,17.6-7,25.2c-4.7,7.7-12.7,14.5-24,20.5c0.7,4.5,2.7,8.1,6.1,10.9
			c3.4,2.8,7.5,4.1,12.4,4.1c5.2,0,10.2-2,15-6c4.8-4,11.2-10.7,19-20c2-2.3,4.2-3.5,6.8-3.5C271.4,671.2,273.1,672.2,274.4,674.2z
			 M179.2,529.6c-3.7,8.6-7.2,20.2-10.6,34.8c-3.4,14.6-6.2,30.5-8.4,47.6c10.3-12.2,18.9-25.4,25.6-39.8
			c6.8-14.3,10.1-27.3,10.1-39c0-5.3-0.6-9.4-1.8-12.2c-1.2-2.8-2.8-4.2-5-4.2C186.2,516.7,182.9,521,179.2,529.6z"/>
		<path class="st6" d="M263.1,717.8c-4.8-6.9-7.1-15.5-7.1-25.9c0-12.5,0.8-24,2.5-34.4c1.7-10.4,4.4-21.5,8.2-33.1
			c1.7-5,4-8.6,7-10.8c3-2.2,7.8-3.2,14.2-3.2c3.7,0,6.2,0.6,7.6,1.8c1.4,1.2,2.1,2.9,2.1,5.2c0,1.3-0.9,5.8-2.8,13.5
			c-1.7,6.2-3,11.8-4,16.8c-3.3,17.5-5,29.2-5,35c0,3.5,0.4,6,1.2,7.4c0.8,1.4,2.2,2.1,4,2.1c2.5,0,5.6-2.5,9.4-7.5
			s7.8-12.6,12-22.8c4.2-10.2,8.4-22.7,12.4-37.5c1.3-5,3.4-8.6,6.1-10.8c2.8-2.2,6.9-3.2,12.4-3.2c3.8,0,6.5,0.5,8,1.4
			c1.5,0.9,2.2,2.6,2.2,5.1c0,4.2-2.1,15.6-6.2,34.2c-4.7,21.3-7,34.5-7,39.5c0,3.2,0.7,5.6,2,7.4c1.3,1.8,3.1,2.6,5.2,2.6
			c3.3,0,7.3-2,11.9-6.1c4.6-4.1,10.7-10.7,18.4-19.9c2-2.3,4.2-3.5,6.8-3.5c2.2,0,3.9,1,5.1,3s1.9,4.8,1.9,8.2
			c0,6.7-1.6,11.8-4.8,15.5c-7.2,8.8-14.9,16.1-23.1,21.8c-8.2,5.7-17.6,8.5-28.1,8.5c-8,0-13.9-3.1-17.6-9.2
			c-3.8-6.2-5.6-14.8-5.6-26c-2.8,11.3-7.1,20-12.8,26.1c-5.7,6.1-11.8,9.1-18.2,9.1C274,728.2,267.9,724.8,263.1,717.8z"/>
		<path class="st6" d="M375.9,718.2c-2.6-6.7-3.9-17.3-3.9-32c0-21.7,3.1-42.2,9.2-61.8c1.5-4.8,4-8.4,7.4-10.6
			c3.4-2.2,8.2-3.4,14.4-3.4c3.3,0,5.7,0.4,7,1.2c1.3,0.8,2,2.4,2,4.8c0,2.7-1.2,8.7-3.8,18c-1.7,6.7-3,12.5-4,17.5
			s-1.8,11.2-2.5,18.5c5.5-14.3,11.7-26,18.5-35c6.8-9,13.5-15.4,20.1-19.2c6.6-3.8,12.6-5.8,18.1-5.8c10.8,0,16.2,5.4,16.2,16.2
			c0,2.2-0.8,7.4-2.2,15.8c-1.3,6.7-2,10.8-2,12.5c0,5.8,2.1,8.8,6.2,8.8c4.7,0,10.7-3.7,18-11c2.2-2.2,4.4-3.2,6.8-3.2
			c2.2,0,3.9,1,5.1,2.9c1.2,1.9,1.9,4.5,1.9,7.6c0,6.2-1.7,11-5,14.5c-4.7,4.8-10.1,9-16.4,12.4c-6.2,3.4-12.9,5.1-19.9,5.1
			c-8.8,0-15.5-2.2-20.1-6.8c-4.6-4.5-6.9-10.6-6.9-18.2c0-2.5,0.2-5,0.8-7.5c0.3-3.3,0.5-5.6,0.5-6.8c0-2.7-0.9-4-2.8-4
			c-2.5,0-5.8,2.8-9.9,8.4c-4.1,5.6-8.1,13-12.1,22.1c-4,9.2-7.2,18.8-9.8,29c-1.8,7.8-4,13.1-6.4,15.9c-2.4,2.8-6.2,4.1-11.4,4.1
			C382.9,728.2,378.4,724.9,375.9,718.2z"/>
		<path class="st6" d="M491.2,717c-6.2-7.5-9.2-17.3-9.2-29.5c0-13.3,3.1-26,9.2-37.9c6.2-11.9,14.4-21.5,24.6-28.8
			S537,610,548.5,610c3.7,0,6.1,0.7,7.4,2.1c1.2,1.4,2.3,4,3.1,7.6c3.5-0.7,7.2-1,11-1c8.2,0,12.2,2.9,12.2,8.8
			c0,3.5-1.2,11.8-3.8,25c-3.8,19.2-5.8,32.5-5.8,40c0,2.5,0.6,4.5,1.9,6s2.9,2.2,4.9,2.2c3.2,0,7-2,11.5-6.1
			c4.5-4.1,10.6-10.7,18.2-19.9c2-2.3,4.2-3.5,6.8-3.5c2.2,0,3.9,1,5.1,3s1.9,4.8,1.9,8.2c0,6.7-1.6,11.8-4.8,15.5
			c-6.8,8.5-14.1,15.7-21.8,21.5c-7.7,5.8-15.1,8.8-22.2,8.8c-5.5,0-10.5-1.9-15.1-5.6c-4.6-3.8-8-8.9-10.4-15.4
			c-8.7,14-19.6,21-32.8,21C505.7,728.2,497.4,724.5,491.2,717z M535.5,696.5c3.3-4.3,5.8-10.1,7.2-17.2l9.2-46
			c-7,0.2-13.5,2.8-19.4,7.9c-5.9,5.1-10.6,11.8-14.1,20.1c-3.5,8.3-5.2,17.2-5.2,26.5c0,5.2,1,9,3.1,11.5c2.1,2.5,5,3.8,8.6,3.8
			C528.7,703,532.2,700.8,535.5,696.5z"/>
		<path class="st6" d="M741.4,674.2c1.2,2,1.9,4.8,1.9,8.2c0,6.7-1.6,11.8-4.8,15.5c-7.2,8.8-14.9,16.1-23.1,21.8
			c-8.2,5.7-17.6,8.5-28.1,8.5c-8.8,0-16-3.2-21.5-9.5c-9.5,6.2-19.4,9.3-29.8,9.5c-2.2,32.2-7.1,59-14.8,80.6
			c-7.7,21.6-18.9,32.4-33.8,32.4c-9,0-15.7-3.2-20-9.8c-4.3-6.5-6.5-15.5-6.5-27c0-16.3,3.8-35.4,11.2-57.1s19.1-45.7,34.8-71.9
			c0-24.3-0.2-41.2-0.5-50.8c-0.2-4.8,1.8-8.7,5.8-11.5c4-2.8,9-4.2,15-4.2c3.5,0,6,0.7,7.6,2.1c1.6,1.4,2.5,4.2,2.6,8.4
			c0,4.2,0.1,7.2,0.2,9.2c5.3-6.7,10.6-11.5,15.8-14.4c5.2-2.9,10.7-4.4,16.5-4.4c9.3,0,17,3.8,22.9,11.2c5.9,7.5,8.9,17.3,8.9,29.5
			c0,8.8-1.4,17.4-4.2,25.8c-2.8,8.3-6.8,15.9-11.8,22.8c3.5,1,6.4,1.5,8.8,1.5c5.5,0,10.8-2,15.8-6s11.4-10.7,19.2-20
			c2-2.3,4.2-3.5,6.8-3.5C738.4,671.2,740.1,672.2,741.4,674.2z M600.7,787.3c3-19.6,4.9-44,5.8-73.1c-7.2,16.7-12.8,32.6-17,47.8
			c-4.2,15.2-6.2,27.9-6.2,38.2c0,5.3,0.6,9.4,1.9,12.2c1.2,2.8,2.7,4.2,4.4,4.2C594,816.7,597.7,806.9,600.7,787.3z M653.9,694.3
			c5.1-5.2,9.1-11.8,12.1-19.5s4.5-15.9,4.5-24.4c0-5-1-8.8-3-11.4c-2-2.6-4.7-3.9-8-3.9c-6,0-13.2,6.3-21.8,19
			c-0.2,7.3-0.2,18.1-0.2,32.2c0,7.7-0.1,13.6-0.2,17.8C643.2,702.9,648.8,699.6,653.9,694.3z"/>
		<path class="st6" d="M861.6,674.2c1.2,2,1.9,4.8,1.9,8.2c0,6.7-1.6,11.8-4.8,15.5c-7.2,8.8-14.9,16.1-23.1,21.8
			c-8.2,5.7-17.6,8.5-28.1,8.5c-8.8,0-16-3.2-21.5-9.5c-9.5,6.2-19.4,9.3-29.8,9.5c-2.2,32.2-7.1,59-14.8,80.6
			c-7.7,21.6-18.9,32.4-33.8,32.4c-9,0-15.7-3.2-20-9.8c-4.3-6.5-6.5-15.5-6.5-27c0-16.3,3.8-35.4,11.2-57.1s19.1-45.7,34.8-71.9
			c0-24.3-0.2-41.2-0.5-50.8c-0.2-4.8,1.8-8.7,5.8-11.5c4-2.8,9-4.2,15-4.2c3.5,0,6,0.7,7.6,2.1c1.6,1.4,2.5,4.2,2.6,8.4
			c0,4.2,0.1,7.2,0.2,9.2c5.3-6.7,10.6-11.5,15.8-14.4c5.2-2.9,10.7-4.4,16.5-4.4c9.3,0,17,3.8,22.9,11.2c5.9,7.5,8.9,17.3,8.9,29.5
			c0,8.8-1.4,17.4-4.2,25.8c-2.8,8.3-6.8,15.9-11.8,22.8c3.5,1,6.4,1.5,8.8,1.5c5.5,0,10.8-2,15.8-6s11.4-10.7,19.2-20
			c2-2.3,4.2-3.5,6.8-3.5C858.6,671.2,860.4,672.2,861.6,674.2z M721,787.3c3-19.6,4.9-44,5.8-73.1c-7.2,16.7-12.8,32.6-17,47.8
			c-4.2,15.2-6.2,27.9-6.2,38.2c0,5.3,0.6,9.4,1.9,12.2c1.2,2.8,2.7,4.2,4.4,4.2C714.2,816.7,718,806.9,721,787.3z M774.1,694.3
			c5.1-5.2,9.1-11.8,12.1-19.5s4.5-15.9,4.5-24.4c0-5-1-8.8-3-11.4c-2-2.6-4.7-3.9-8-3.9c-6,0-13.2,6.3-21.8,19
			c-0.2,7.3-0.2,18.1-0.2,32.2c0,7.7-0.1,13.6-0.2,17.8C763.5,702.9,769,699.6,774.1,694.3z"/>
	</g>
</g>
</svg>
