<?xml version="1.0" encoding="utf-8"?>
<!-- Generator: Adobe Illustrator 27.4.0, SVG Export Plug-In . SVG Version: 6.00 Build 0)  -->
<svg version="1.1" id="katman_1" xmlns="http://www.w3.org/2000/svg" xmlns:xlink="http://www.w3.org/1999/xlink" x="0px" y="0px"
	 viewBox="0 0 300 300" style="enable-background:new 0 0 300 300;" xml:space="preserve">
<style type="text/css">
	.st0{display:none;}
	.st1{display:inline;fill:#262728;}
	.st2{display:inline;fill:#99AD65;}
	.st3{display:inline;fill:#909E5E;}
	.st4{display:inline;}
	.st5{fill:#879659;}
	.st6{fill:#262728;}
	.st7{fill:#FFFFFF;}
	.st8{opacity:0.27;fill:#76787B;}
	.st9{opacity:0.64;fill:#FFFFFF;}
	.st10{display:inline;fill:#EA5242;}
	.st11{fill:#99AD65;}
	.st12{fill:#909E5E;}
	.st13{fill:#EA5242;}
	.st14{fill:#CDCCCC;}
	.st15{fill:#D7D7D7;}
	.st16{fill:#CA907F;}
	.st17{fill:#99675C;}
	.st18{fill:#6D4E45;}
	.st19{fill:#6E4E46;}
</style>
<g>
	<g class="st0">
		<path class="st1" d="M105.8,75.3c1.5-1.3,3.3-2.7,4.9-2.2c1.2,0.4,1.7,1.8,2.1,3c0.5,1.2,1,2.4,1.6,3.6c0.3,0.6,0.7,1.3,1.3,1.7
			c0.6,0.4,1.4,0.5,2.1,0.1c1.3-0.8,1.3-2.7,1-4c-0.7-3.3-1.9-6.5-3.6-9.2c-0.4-0.6-0.8-1.2-1.4-1.3c-0.5-0.1-1,0-1.5,0.1
			c-2.2,0.6-4.4,1.8-6.5,3c-5.5,3.2-10.1,6.8-15.4,10.4c-1,0.7-5,5.7-5.6,7.5c-0.6,1.8-1.5,3.5-2.6,5c-0.9,1.3-3.1,5.4-0.1,3.4
			c2.6-1.7,4-6.6,6.3-8.7C93.8,82.7,100.3,80.1,105.8,75.3z"/>
		<path class="st2" d="M102.5,88.6c-6.1,9.8-6.1,22.2-6.1,33.8c0,12.3,0.4,24.6,2.4,36.7c2.7,16,8.3,31.3,15.6,45.8
			c5.9,11.5,13.3,22.9,24.4,29.7c11.1,6.8,26.4,7.9,36.5-0.3c5.1-4.2,8.4-11.7,5.1-17.5c-3.6-6.4-12.9-7-18.1-12.2
			c-3-3-4.3-7.2-5.1-11.3c-1.1-5.9-1.3-11.9-1-17.8c0.7-11,3.3-21.9,7.8-32c3.3-7.4,7.5-14.4,10.6-21.9c3.1-7.5,5.1-15.7,3.7-23.7
			c-1.8-10-9.1-18.5-18.2-23C149.7,69.8,116.9,65.6,102.5,88.6z"/>
		<path class="st3" d="M180.4,217.3c-2.8-4.9-8.4-6.5-13.3-9.3c-1.5-0.9-3.2-1.8-4.4-3c-3-3-4.5-7-5.3-11.2
			c-1.1-5.9-1.4-11.9-1.1-17.8c0.7-11,3.3-21.9,7.8-32c3.3-7.4,7.5-14.4,10.6-21.9c3.1-7.5,5.1-15.7,3.7-23.7
			c-0.6-3.2-1.7-6.2-3.3-9c0.1,1.3,0.7,2.8,0.8,3.7c0.9,5.2,1.2,10.6-0.1,15.8c-1.2,5-3.8,9.5-6.4,13.9
			c-9.5,16.1-19.9,32.2-24.3,50.4c-2.2,9.2-2.8,19,0.1,28c1.6,5.1,4.4,9.8,7.7,14c3.3,4.2,7.4,8,12.6,9.5c5.5,1.6,11.5,0.2,16.3-3
			C181.6,220.1,181.2,218.6,180.4,217.3z"/>
		<g class="st4">
			<path class="st5" d="M163.2,205.4c-0.3-0.2-0.6-0.5-0.9-0.8c-1.8-1.8-2.9-4-3.8-6.4c-7.4,6.3-16.2,10.9-25.8,12.2
				c-5.2,0.7-10.5,0.5-15.6-0.8c2.5,4.5,5.3,8.9,8.5,12.9c4.7-1.4,9.4-3.1,14.1-4.6c6-1.8,12.2-3.4,17.4-7
				C159.4,209.4,161.3,207.5,163.2,205.4z"/>
			<path class="st5" d="M97.2,146.6c0.4,4.2,0.8,8.2,1.5,12.3c0,0,0,0.2,0,0.2c1.4,0.9,2.9,1.6,4.4,2.3c5,2,10.5,2.5,15.9,2.4
				c8.4-0.1,16.7-1.6,24.6-4.3c4-1.4,7.8-3.1,11.4-5.2c2.2-1.3,4.6-3,6.6-4.6c0.8-2.2,1.6-4.1,2.5-6.2c1-2.4,2.2-4.7,3.4-7
				c-12.4,10.1-27.3,17.7-43.1,18.6c-6.7,0.4-13.7-0.4-19.8-3.3C102,150.5,99.4,148.7,97.2,146.6z"/>
			<path class="st5" d="M143.6,188.4c4.3-2,8.4-4.2,12.5-6.7c0-2.1,0.1-4.2,0.2-6.3c0-0.7,0.1-1.3,0.1-2c-1.8,1.3-3.7,2.5-5.6,3.7
				c-7.7,4.5-16.5,7.6-25.4,7.3c-5.4-0.2-10.6-1.7-15.6-3.7c-2.2-0.9-4.5-2-6.6-3.2c1.7,5.4,3.6,10.7,5.8,15.9
				c2.7,0.8,5.6,1.3,8.4,1.5C126.5,195.2,135.4,192.2,143.6,188.4z"/>
		</g>
		<path class="st2" d="M216.9,198.5c5.6-7.7,8.8-16.9,13.2-25.3c3.5-6.6,7.8-12.9,13.6-17.6c5.8-4.7,13.1-7.9,20.6-7.5
			c7.5,0.3,14.9,4.4,18.2,11.1c1.9,3.8,2.2,8.9-0.7,12.1c-0.6,0.6-1.6,1.1-2.1,0.5c-0.3-0.3-0.3-0.9-0.2-1.3
			c0.5-6-4.6-11.5-10.5-12.7c-5.9-1.2-12.1,1-16.8,4.7c-8.8,6.9-13.2,18-15.7,28.9c-2.5,10.9-3.6,22.2-7.5,32.6
			c-1.8,4.8-4.4,9.6-8.3,13c-2.9,2.5-6.3,4.3-10,5.5c-6.9,2.3-14.3,3-21.5,1.8c-3.4-0.6-7-1.7-9.1-4.5c-1.2-1.6-1.7-3.7-1.9-5.7
			c-0.8-8.9,5.2-19.2,14.1-21.6c4.4-1.2,8.4-0.9,12.6-3.2C209.8,206.6,213.8,202.8,216.9,198.5z"/>
		<path class="st3" d="M279.5,170.4c0,0.5-0.1,1,0.2,1.3c0.4,0.4,0.9,0.3,1.4,0c-0.6-5,0.3-10.5-2.3-14.8c-2.6-4.3-8.1-6.1-13.2-5.8
			c-7.7,0.4-14.7,4.8-19.7,10.5c-5.1,5.8-8.3,12.8-11.1,20c-2.8,7.2-5,14.5-8.4,21.4c-1.1,2.2-2.3,4.4-3,6.8
			c-0.6,2.4-0.6,5.1,0.7,7.2c1.5,2.4,3.7,3.1,6.1,2.9c2.9-9.3,4-19.2,6.2-28.7c2.5-10.9,6.9-22,15.7-28.9c4.7-3.7,10.9-6,16.8-4.7
			C274.9,158.9,280,164.4,279.5,170.4z"/>
		<path class="st1" d="M185.6,91.9c1.2-1.1,2.7-2.3,4.3-1.8c1.2,0.4,1.9,1.6,2.5,2.7c0.6,1.1,1.3,2.1,2,3.1c0.4,0.6,0.8,1.1,1.4,1.5
			c0.6,0.4,1.4,0.5,2,0.1c1.1-0.7,0.8-2.3,0.3-3.5c-1.2-2.9-2.8-5.7-4.8-8.1c-0.4-0.5-0.9-1-1.5-1.2c-0.5-0.1-0.9,0-1.4,0.1
			c-2,0.5-3.9,1.5-5.7,2.5c-4.7,2.7-9.2,5.8-13.6,8.9c-0.8,0.6-1.6,1.1-2.2,2c-0.9,1.3-1,3-1.3,4.6c-0.3,1.5-0.9,3-1.6,4.3
			c-0.7,1.1-2.1,4.7,0.4,2.9c2.2-1.5,4-3.7,5.9-5.5C176.7,100.2,181.2,96,185.6,91.9z"/>
		<g class="st4">
			<path class="st6" d="M116.6,102.4c0,5.2-3.7,9.3-8.3,9.3c-4.6,0-8.3-4.2-8.3-9.3s3.7-9.3,8.3-9.3
				C112.9,93.1,116.6,97.3,116.6,102.4z"/>
			<path class="st7" d="M115,101.4c-0.1-0.7-0.3-1.4-0.7-2c-0.4-0.6-1-1.2-1.7-1.3c-0.7-0.2-1.5,0.2-1.7,0.8
				c-0.3,0.9,0.4,1.8,0.8,2.7c0.4,0.9,0.4,2,0.1,2.8c-0.1,0.3-0.2,0.6-0.3,0.9c0,0.3,0.1,0.7,0.4,0.8c0.7,0.3,2-0.9,2.4-1.3
				C115.2,103.9,115.2,102.6,115,101.4z"/>
		</g>
		<g class="st4">
			<ellipse class="st6" cx="147.1" cy="105.9" rx="8.3" ry="9.3"/>
			<path class="st7" d="M153.8,103.9c-0.1-0.7-0.3-1.4-0.7-2c-0.4-0.6-1-1.2-1.7-1.3c-0.7-0.2-1.5,0.2-1.7,0.8
				c-0.3,0.9,0.4,1.8,0.8,2.7c0.4,0.9,0.4,2,0.1,2.8c-0.1,0.3-0.2,0.6-0.3,0.9c0,0.3,0.1,0.7,0.4,0.8c0.7,0.3,2-0.9,2.4-1.3
				C154,106.4,154,105.1,153.8,103.9z"/>
		</g>
		<g class="st4">
			
				<ellipse transform="matrix(0.1707 -0.9853 0.9853 0.1707 -13.6599 182.0363)" class="st8" cx="101.3" cy="99.1" rx="19.3" ry="19.3"/>
			<g>
				<path class="st6" d="M101.3,121.6c-12.4,0-22.4-10.1-22.4-22.4c0-12.4,10.1-22.4,22.4-22.4s22.4,10.1,22.4,22.4
					C123.8,111.5,113.7,121.6,101.3,121.6z M101.3,82c-9.4,0-17.1,7.7-17.1,17.1s7.7,17.1,17.1,17.1s17.1-7.7,17.1-17.1
					S110.7,82,101.3,82z"/>
			</g>
			<path class="st9" d="M89.6,91.5C88.2,94,87.7,97,88,99.8c0.1,1.3,0.4,2.7,1.2,3.8c0.8,1.1,2.1,1.8,3.4,1.6c1.9-0.3,3-2.3,3.2-4.2
				c0.2-1.9-0.2-3.8,0-5.7c0.3-2.4,1.8-4.7,3.9-6c0.5-0.3,1.1-0.6,1.6-1c0.5-0.4,0.8-1.1,0.6-1.7c-0.2-0.6-0.8-1.1-1.4-1.2
				c-0.6-0.1-1.3,0-2,0.1C94.7,86.3,91.7,88,89.6,91.5z"/>
		</g>
		<g class="st4">
			
				<ellipse transform="matrix(0.1602 -0.9871 0.9871 0.1602 21.6845 234.1579)" class="st8" cx="148.5" cy="104.3" rx="19.3" ry="19.3"/>
			<g>
				<path class="st6" d="M148.5,126.8c-12.4,0-22.4-10.1-22.4-22.4c0-12.4,10.1-22.4,22.4-22.4s22.4,10.1,22.4,22.4
					C170.9,116.7,160.8,126.8,148.5,126.8z M148.5,87.2c-9.4,0-17.1,7.7-17.1,17.1c0,9.4,7.7,17.1,17.1,17.1
					c9.4,0,17.1-7.7,17.1-17.1C165.5,94.9,157.9,87.2,148.5,87.2z"/>
			</g>
			<path class="st9" d="M136.8,96.7c-1.4,2.5-1.9,5.4-1.6,8.3c0.1,1.3,0.4,2.7,1.2,3.8c0.8,1.1,2.1,1.8,3.4,1.6
				c1.9-0.3,3-2.3,3.2-4.2c0.2-1.9-0.2-3.8,0-5.7c0.3-2.4,1.8-4.7,3.9-6c0.5-0.3,1.1-0.6,1.6-1c0.5-0.4,0.8-1.1,0.6-1.7
				c-0.2-0.6-0.8-1.1-1.4-1.2c-0.6-0.1-1.3,0-2,0.1C141.8,91.5,138.8,93.2,136.8,96.7z"/>
		</g>
		<path class="st1" d="M123.5,99.2c1.7-0.3,3.4,0,4.9,0.8c0.4,0.3,0.9,0.6,1.1,1c0.2,0.5,0.3,1,0.3,1.5c0,1.6,0,3.3-0.1,4.9
			c-0.7-1.7-2.4-3-4.3-3.2c-1.9-0.2-3.8,0.8-4.8,2.4c-0.3,0.5-0.5,1.1-0.9,1.6c-0.1,0.1-0.2,0.3-0.4,0.2c-0.1,0-0.2-0.1-0.2-0.3
			c-0.2-0.6-0.1-1.3-0.1-1.9C119.4,102.6,119.2,100.3,123.5,99.2z"/>
		<path class="st1" d="M110.6,128.3c0,0,2.7-2.2,7.2-1.5c8.2,1.2,11.5,3.5,11.8,3.8c0.3,0.3-0.3,16-11.2,14.6
			C106.3,143.8,110.6,128.3,110.6,128.3z"/>
		<path class="st10" d="M110.7,139.5c1.1,3,3.4,5.3,7.6,5.8c3.5,0.4,6.6-0.7,8.9-4.7c-0.3-0.5-1.2-1.4-1.7-1.8
			c-1.8-1.6-4.7-1.5-6.6-0.1c-1.3-1.5-3.7-1.8-5.4-0.9C112.7,138.1,111.3,138.7,110.7,139.5z"/>
	</g>
	<g>
		<path class="st6" d="M105.8,75.3c1.5-1.3,3.3-2.7,4.9-2.2c1.2,0.4,1.7,1.8,2.1,3c0.5,1.2,1,2.4,1.6,3.6c0.3,0.6,0.7,1.3,1.3,1.7
			c0.6,0.4,1.4,0.5,2.1,0.1c1.3-0.8,1.3-2.7,1-4c-0.7-3.3-1.9-6.5-3.6-9.2c-0.4-0.6-0.8-1.2-1.4-1.3c-0.5-0.1-1,0-1.5,0.1
			c-2.2,0.6-4.4,1.8-6.5,3c-5.5,3.2-10.1,6.8-15.4,10.4c-1,0.7-5,5.7-5.6,7.5c-0.6,1.8-1.5,3.5-2.6,5c-0.9,1.3-3.1,5.4-0.1,3.4
			c2.6-1.7,4-6.6,6.3-8.7C93.8,82.7,100.3,80.1,105.8,75.3z"/>
		<path class="st11" d="M102.5,88.6c-6.1,9.8-6.1,22.2-6.1,33.8c0,12.3,0.4,24.6,2.4,36.7c2.7,16,8.3,31.3,15.6,45.8
			c5.9,11.5,13.3,22.9,24.4,29.7c11.1,6.8,26.4,7.9,36.5-0.3c5.1-4.2,8.4-11.7,5.1-17.5c-3.6-6.4-12.9-7-18.1-12.2
			c-3-3-4.3-7.2-5.1-11.3c-1.1-5.9-1.3-11.9-1-17.8c0.7-11,3.3-21.9,7.8-32c3.3-7.4,7.5-14.4,10.6-21.9c3.1-7.5,5.1-15.7,3.7-23.7
			c-1.8-10-9.1-18.5-18.2-23C149.7,69.8,116.9,65.6,102.5,88.6z"/>
		<path class="st12" d="M180.4,217.3c-2.8-4.9-8.4-6.5-13.3-9.3c-1.5-0.9-3.2-1.8-4.4-3c-3-3-4.5-7-5.3-11.2
			c-1.1-5.9-1.4-11.9-1.1-17.8c0.7-11,3.3-21.9,7.8-32c3.3-7.4,7.5-14.4,10.6-21.9c3.1-7.5,5.1-15.7,3.7-23.7
			c-0.6-3.2-1.7-6.2-3.3-9c0.1,1.3,0.7,2.8,0.8,3.7c0.9,5.2,1.2,10.6-0.1,15.8c-1.2,5-3.8,9.5-6.4,13.9
			c-9.5,16.1-19.9,32.2-24.3,50.4c-2.2,9.2-2.8,19,0.1,28c1.6,5.1,4.4,9.8,7.7,14c3.3,4.2,7.4,8,12.6,9.5c5.5,1.6,11.5,0.2,16.3-3
			C181.6,220.1,181.2,218.6,180.4,217.3z"/>
		<g>
			<path class="st5" d="M163.2,205.4c-0.3-0.2-0.6-0.5-0.9-0.8c-1.8-1.8-2.9-4-3.8-6.4c-7.4,6.3-16.2,10.9-25.8,12.2
				c-5.2,0.7-10.5,0.5-15.6-0.8c2.5,4.5,5.3,8.9,8.5,12.9c4.7-1.4,9.4-3.1,14.1-4.6c6-1.8,12.2-3.4,17.4-7
				C159.4,209.4,161.3,207.5,163.2,205.4z"/>
			<path class="st5" d="M97.2,146.6c0.4,4.2,0.8,8.2,1.5,12.3c0,0,0,0.2,0,0.2c1.4,0.9,2.9,1.6,4.4,2.3c5,2,10.5,2.5,15.9,2.4
				c8.4-0.1,16.7-1.6,24.6-4.3c4-1.4,7.8-3.1,11.4-5.2c2.2-1.3,4.6-3,6.6-4.6c0.8-2.2,1.6-4.1,2.5-6.2c1-2.4,2.2-4.7,3.4-7
				c-12.4,10.1-27.3,17.7-43.1,18.6c-6.7,0.4-13.7-0.4-19.8-3.3C102,150.5,99.4,148.7,97.2,146.6z"/>
			<path class="st5" d="M143.6,188.4c4.3-2,8.4-4.2,12.5-6.7c0-2.1,0.1-4.2,0.2-6.3c0-0.7,0.1-1.3,0.1-2c-1.8,1.3-3.7,2.5-5.6,3.7
				c-7.7,4.5-16.5,7.6-25.4,7.3c-5.4-0.2-10.6-1.7-15.6-3.7c-2.2-0.9-4.5-2-6.6-3.2c1.7,5.4,3.6,10.7,5.8,15.9
				c2.7,0.8,5.6,1.3,8.4,1.5C126.5,195.2,135.4,192.2,143.6,188.4z"/>
		</g>
		<path class="st11" d="M216.9,198.5c5.6-7.7,8.8-16.9,13.2-25.3c3.5-6.6,7.8-12.9,13.6-17.6c5.8-4.7,13.1-7.9,20.6-7.5
			c7.5,0.3,14.9,4.4,18.2,11.1c1.9,3.8,2.2,8.9-0.7,12.1c-0.6,0.6-1.6,1.1-2.1,0.5c-0.3-0.3-0.3-0.9-0.2-1.3
			c0.5-6-4.6-11.5-10.5-12.7c-5.9-1.2-12.1,1-16.8,4.7c-8.8,6.9-13.2,18-15.7,28.9c-2.5,10.9-3.6,22.2-7.5,32.6
			c-1.8,4.8-4.4,9.6-8.3,13c-2.9,2.5-6.3,4.3-10,5.5c-6.9,2.3-14.3,3-21.5,1.8c-3.4-0.6-7-1.7-9.1-4.5c-1.2-1.6-1.7-3.7-1.9-5.7
			c-0.8-8.9,5.2-19.2,14.1-21.6c4.4-1.2,8.4-0.9,12.6-3.2C209.8,206.6,213.8,202.8,216.9,198.5z"/>
		<path class="st12" d="M279.5,170.4c0,0.5-0.1,1,0.2,1.3c0.4,0.4,0.9,0.3,1.4,0c-0.6-5,0.3-10.5-2.3-14.8
			c-2.6-4.3-8.1-6.1-13.2-5.8c-7.7,0.4-14.7,4.8-19.7,10.5c-5.1,5.8-8.3,12.8-11.1,20c-2.8,7.2-5,14.5-8.4,21.4
			c-1.1,2.2-2.3,4.4-3,6.8c-0.6,2.4-0.6,5.1,0.7,7.2c1.5,2.4,3.7,3.1,6.1,2.9c2.9-9.3,4-19.2,6.2-28.7c2.5-10.9,6.9-22,15.7-28.9
			c4.7-3.7,10.9-6,16.8-4.7C274.9,158.9,280,164.4,279.5,170.4z"/>
		<path class="st6" d="M185.6,91.9c1.2-1.1,2.7-2.3,4.3-1.8c1.2,0.4,1.9,1.6,2.5,2.7c0.6,1.1,1.3,2.1,2,3.1c0.4,0.6,0.8,1.1,1.4,1.5
			c0.6,0.4,1.4,0.5,2,0.1c1.1-0.7,0.8-2.3,0.3-3.5c-1.2-2.9-2.8-5.7-4.8-8.1c-0.4-0.5-0.9-1-1.5-1.2c-0.5-0.1-0.9,0-1.4,0.1
			c-2,0.5-3.9,1.5-5.7,2.5c-4.7,2.7-9.2,5.8-13.6,8.9c-0.8,0.6-1.6,1.1-2.2,2c-0.9,1.3-1,3-1.3,4.6c-0.3,1.5-0.9,3-1.6,4.3
			c-0.7,1.1-2.1,4.7,0.4,2.9c2.2-1.5,4-3.7,5.9-5.5C176.7,100.2,181.2,96,185.6,91.9z"/>
		<g>
			<path class="st6" d="M116.6,102.4c0,5.2-3.7,9.3-8.3,9.3c-4.6,0-8.3-4.2-8.3-9.3s3.7-9.3,8.3-9.3
				C112.9,93.1,116.6,97.3,116.6,102.4z"/>
			<path class="st7" d="M105,109.2c0.6,0.4,1.2,0.8,1.9,0.9c0.7,0.2,1.5,0.1,2.1-0.3c0.6-0.4,0.9-1.1,0.6-1.7
				c-0.4-0.8-1.6-1-2.5-1.4c-0.9-0.4-1.7-1.1-2.1-1.9c-0.1-0.3-0.2-0.6-0.4-0.8c-0.2-0.2-0.6-0.4-0.9-0.3c-0.7,0.2-0.8,2-0.8,2.6
				C103.1,107.6,104,108.5,105,109.2z"/>
		</g>
		<g>
			<ellipse class="st6" cx="147.1" cy="105.9" rx="8.3" ry="9.3"/>
			<path class="st7" d="M143.8,111.7c0.6,0.4,1.2,0.8,1.9,0.9c0.7,0.2,1.5,0.1,2.1-0.3c0.6-0.4,0.9-1.1,0.6-1.7
				c-0.4-0.8-1.6-1-2.5-1.4c-0.9-0.4-1.7-1.1-2.1-1.9c-0.1-0.3-0.2-0.6-0.4-0.8c-0.2-0.2-0.6-0.4-0.9-0.3c-0.7,0.2-0.8,2-0.8,2.6
				C141.9,110.1,142.8,111,143.8,111.7z"/>
		</g>
		<g>
			
				<ellipse transform="matrix(0.1707 -0.9853 0.9853 0.1707 -13.6599 182.0363)" class="st8" cx="101.3" cy="99.1" rx="19.3" ry="19.3"/>
			<g>
				<path class="st6" d="M101.3,121.6c-12.4,0-22.4-10.1-22.4-22.4c0-12.4,10.1-22.4,22.4-22.4s22.4,10.1,22.4,22.4
					C123.8,111.5,113.7,121.6,101.3,121.6z M101.3,82c-9.4,0-17.1,7.7-17.1,17.1s7.7,17.1,17.1,17.1s17.1-7.7,17.1-17.1
					S110.7,82,101.3,82z"/>
			</g>
			<path class="st9" d="M89.6,91.5C88.2,94,87.7,97,88,99.8c0.1,1.3,0.4,2.7,1.2,3.8c0.8,1.1,2.1,1.8,3.4,1.6c1.9-0.3,3-2.3,3.2-4.2
				c0.2-1.9-0.2-3.8,0-5.7c0.3-2.4,1.8-4.7,3.9-6c0.5-0.3,1.1-0.6,1.6-1c0.5-0.4,0.8-1.1,0.6-1.7c-0.2-0.6-0.8-1.1-1.4-1.2
				c-0.6-0.1-1.3,0-2,0.1C94.7,86.3,91.7,88,89.6,91.5z"/>
		</g>
		<g>
			
				<ellipse transform="matrix(0.1602 -0.9871 0.9871 0.1602 21.6845 234.1579)" class="st8" cx="148.5" cy="104.3" rx="19.3" ry="19.3"/>
			<g>
				<path class="st6" d="M148.5,126.8c-12.4,0-22.4-10.1-22.4-22.4c0-12.4,10.1-22.4,22.4-22.4s22.4,10.1,22.4,22.4
					C170.9,116.7,160.8,126.8,148.5,126.8z M148.5,87.2c-9.4,0-17.1,7.7-17.1,17.1c0,9.4,7.7,17.1,17.1,17.1
					c9.4,0,17.1-7.7,17.1-17.1C165.5,94.9,157.9,87.2,148.5,87.2z"/>
			</g>
			<path class="st9" d="M136.8,96.7c-1.4,2.5-1.9,5.4-1.6,8.3c0.1,1.3,0.4,2.7,1.2,3.8c0.8,1.1,2.1,1.8,3.4,1.6
				c1.9-0.3,3-2.3,3.2-4.2c0.2-1.9-0.2-3.8,0-5.7c0.3-2.4,1.8-4.7,3.9-6c0.5-0.3,1.1-0.6,1.6-1c0.5-0.4,0.8-1.1,0.6-1.7
				c-0.2-0.6-0.8-1.1-1.4-1.2c-0.6-0.1-1.3,0-2,0.1C141.8,91.5,138.8,93.2,136.8,96.7z"/>
		</g>
		<path class="st6" d="M123.5,99.2c1.7-0.3,3.4,0,4.9,0.8c0.4,0.3,0.9,0.6,1.1,1c0.2,0.5,0.3,1,0.3,1.5c0,1.6,0,3.3-0.1,4.9
			c-0.7-1.7-2.4-3-4.3-3.2c-1.9-0.2-3.8,0.8-4.8,2.4c-0.3,0.5-0.5,1.1-0.9,1.6c-0.1,0.1-0.2,0.3-0.4,0.2c-0.1,0-0.2-0.1-0.2-0.3
			c-0.2-0.6-0.1-1.3-0.1-1.9C119.4,102.6,119.2,100.3,123.5,99.2z"/>
		<path class="st6" d="M110.5,120c0,0,2.4,4.5,7.4,5.3c9.2,1.4,14.9-4.7,15.3-4.3c0.3,0.4-2.3,26.6-14.6,25.1
			C104.9,144.5,110.5,120,110.5,120z"/>
		<path class="st13" d="M110.7,139.6c1.3,3.4,3.7,6,7.8,6.5c4.1,0.5,7.1-2,9.3-5.7c-0.3-0.6-0.7-1.1-1.2-1.6c-2-1.8-5.3-1.7-7.5-0.1
			c-1.5-1.7-4.1-2-6.1-1C112.2,138.1,111.4,138.8,110.7,139.6z"/>
	</g>
	<path class="st14" d="M215.5,119.9l-0.2-2.7c0,0-2.3,3.5-6.7,5.6c-17.8,8.5-63.3,27.8-69,28.3c0,0-77.8-24.4-83.6-37.1
		c0,0-6.1,1.8,0.9,16.3s114.1,36.7,114.5,37.3c0.3,0.5,28.6-26.4,39.8-37.1C214.2,127.7,215.8,123.8,215.5,119.9z"/>
	<path class="st15" d="M50.3,121.8c0-0.2,0.1-0.3,0.1-0.5c0.3-1.3,1.7-2,3-1.5l78.7,30.6c0.8,0.3,1.6,0.6,2.3,1l4.4,2
		c0.7,0.3,1.5,0.3,2.1-0.1l2.4-1.5c0.4-0.2,1.1-0.6,1.5-0.8l71.2-28.2c0.8-0.3,1.6-0.2,2.3,0.4l0,0c1,0.9,1,2.4,0.1,3.3l-37.2,35.8
		c-0.3,0.3-0.7,0.5-1.2,0.6l-70.5,12.4c-0.7,0.1-1.4-0.1-1.9-0.5L51,124C50.4,123.4,50.1,122.6,50.3,121.8z"/>
	<path class="st16" d="M48.7,120.7l82.4,32c0.5,0.2,1,0.6,1.3,1.1c0.5,0.8,2,2.1,6.9,2.2c5.8,0.1,7.2-1.9,7.5-3.2
		c0.2-0.8,0.7-1.5,1.5-1.8l72.9-27.5l0.8,131.3l-68.4,22.9c0,0,0.4,2.8-7.9,3.2c-8.3,0.4-9.5-4-9.5-4l-74.8-22.5L48.7,120.7z"/>
	<g>
		<polygon class="st17" points="47.4,121.6 60.5,254.8 134.3,276.6 129.2,153.6 		"/>
		<path class="st17" d="M221.9,124.3l-70.6,27.4c0,0-0.2,6.2-10.1,6.4c-5.4,0.1-8.4-1.6-9.9-2.8l5.1,122.7c1.1,1.4,3.9,3.7,9.6,3.4
			c8-0.4,10.5-4.1,10.5-4.1l65.8-22.3L221.9,124.3z"/>
		<path class="st18" d="M130.1,153.9l-0.9-0.3l5.1,123l1.4,0.4c0,0,0.2,0.4,0.7,0.9l-5.1-122.7C130.4,154.5,130.1,153.9,130.1,153.9
			z"/>
	</g>
	<g>
		<path class="st18" d="M157.9,276.8l-6-125.4l-0.4,0.2l-0.3,0.1c0,0-0.1,1.6-1.3,3.1l5.8,123.3l0.7-0.7c0-0.1,0.1-0.1,0.1-0.1
			L157.9,276.8z"/>
	</g>
</g>
<g>
	<path class="st19" d="M84,165.4l-5.4-3.3l-22.6,19.5l5.1,3.7l7.1-6.6l4.4,2.7l-3.2,8.5l7.4,4.5L84,165.4z M71.6,174.1l4.1-4.8
		l1.1,0.7l-2.1,6L71.6,174.1z"/>
	<path class="st19" d="M100.3,199.3c0.8-9-6.8-10.8-9.1-11.2c1.6,0.1,5.8-0.2,6-6.7c0.3-6.1-10.4-6.5-10.4-6.5L83.8,205
		C83.8,205,99.5,208.6,100.3,199.3z M90.1,184l0.3-4.7c0,0,3.6,0.4,3.4,2.3C93.6,184.8,89.3,183.9,90.1,184z M89.1,201.4l0.6-8.9
		c0,0,6.3,0.4,5.4,5.1C94.1,202.3,89.1,201.4,89.1,201.4z"/>
	<path class="st19" d="M126.3,193.7c0,0,2.8-5.8-1.5-9.3c-4-3.3-7.9-1.8-11.7,2.5c-3.9,4.3-8.1,12.6-4.5,16.5
		c6.3,6.8,12.7,0,12.4-0.1c-0.3-0.2-2.1-3.6-2.3-3.6c-0.2,0-2.7,3.1-5.4,0.5c-1.9-1.8-0.1-5,1.8-7.8c2.1-3.2,3.7-4.6,5.4-3.4
		c1.7,1.2,0.2,3.2,0.2,3.2L126.3,193.7z"/>
	<path class="st19" d="M61.7,200.1c0.5-0.1,55.8,17.6,55.8,17.6s-0.1,2-0.4,1.9c-0.2,0-55.8-17.6-55.8-17.6L61.7,200.1z"/>
	<path class="st19" d="M60.8,204.5c0.3-0.3,56,17,56,17l-1,1.4l-54.5-17.3L60.8,204.5z"/>
</g>
<g>
	<path class="st19" d="M163.9,177.6l-5.3,1.7l0,26.3l5.4-1.3l-0.3-8.5l4.4-1.4l3.8,7l7.3-2.3L163.9,177.6z M162.6,190.9l-0.8-5.5
		l1.1-0.4l2.7,4.8L162.6,190.9z"/>
	<path class="st19" d="M195.8,186.3c-5.5-5.7-11.1-1.7-12.6-0.4c1-1,3.2-3.9-1-7.9c-3.9-3.7-10.3,3.1-10.3,3.1l18.2,19.3
		C190.1,200.5,201.5,192.2,195.8,186.3z M179.8,184.3l-3-3c0,0,2.3-2.1,3.5-0.9C182.3,182.4,179.2,184.8,179.8,184.3z M190.8,194.9
		l-5.6-5.5c0,0,3.9-4,6.5-0.7C194.2,192.1,190.8,194.9,190.8,194.9z"/>
	<path class="st19" d="M207.1,165.8c0,0-2.2-5.2-7.1-4.4c-4.5,0.7-5.7,4.2-5.1,9.2c0.6,5,3.7,12.6,8.3,12.5c8.1-0.2,7.3-8.4,7.1-8.3
		c-0.3,0.1-3.6-0.7-3.7-0.6c-0.1,0.1,0.5,3.5-2.8,3.8c-2.3,0.2-3.4-2.8-4.2-5.7c-0.9-3.3-1-5.1,0.8-5.6c1.8-0.5,2.3,1.7,2.3,1.7
		L207.1,165.8z"/>
	<path class="st19" d="M174.1,212.4c0.2-0.4,43.8-26.9,43.8-26.9s1.2,1.2,1.1,1.3s-43.8,26.9-43.8,26.9L174.1,212.4z"/>
	<path class="st19" d="M176.6,215.5c0-0.4,43.5-27.4,43.5-27.4l0.4,1.5l-42.8,26.2L176.6,215.5z"/>
</g>
</svg>
