<?xml version="1.0" encoding="utf-8"?>
<!-- Generator: Adobe Illustrator 27.4.0, SVG Export Plug-In . SVG Version: 6.00 Build 0)  -->
<svg version="1.1" id="katman_1" xmlns="http://www.w3.org/2000/svg" xmlns:xlink="http://www.w3.org/1999/xlink" x="0px" y="0px"
	 viewBox="0 0 300 300" style="enable-background:new 0 0 300 300;" xml:space="preserve">
<style type="text/css">
	.st0{fill:#6E4E46;}
	.st1{fill:#262728;}
	.st2{fill:#D8BFAA;}
	.st3{fill:#99AD65;}
	.st4{fill:#FEE5C1;}
	.st5{fill:#EAD0B5;}
	.st6{fill:#CA907F;}
	.st7{fill:#996E60;}
	.st8{opacity:0.32;fill:#FFFFFF;}
	.st9{fill:#FFFFFF;}
	.st10{fill:#909E5E;}
	.st11{fill:#879659;}
	.st12{opacity:0.27;fill:#76787B;}
	.st13{opacity:0.64;fill:#FFFFFF;}
</style>
<g>
	<polygon class="st0" points="152,46.8 149.2,72.4 132.7,50.2 152,46.8 	"/>
	<path class="st1" d="M263,84.2c-1.4-1.9-3.1-4-5.1-3.8c-1.5,0.2-2.4,1.6-3.3,2.9c-0.8,1.3-1.8,2.5-2.7,3.7
		c-0.5,0.6-1.1,1.3-1.9,1.6c-0.8,0.3-1.7,0.2-2.4-0.5c-1.3-1.3-0.8-3.4-0.1-4.9c1.7-3.7,3.9-7,6.6-9.7c0.6-0.6,1.2-1.2,2-1.2
		c0.6,0,1.2,0.3,1.7,0.6c2.4,1.3,4.6,3.2,6.7,5.1c5.6,5.1,9.9,10.5,15.1,16c0.9,1,4.3,8,4.5,10.2c0.2,2.2,0.8,4.4,1.6,6.5
		c0.7,1.8,2.2,7-0.8,3.9c-2.5-2.7-2.9-8.7-5.1-11.7C275,95.9,268.1,91.3,263,84.2z"/>
	<path class="st2" d="M155.8,54.8L152,218.6c0,0,6.1,4.3-27.7,9.3c-33.8,5-84-15.9-84-15.9L30.1,78.3l52.3-14.5L155.8,54.8
		L155.8,54.8z"/>
	<path class="st3" d="M267.9,135.4c0.2-5.5-0.2-11.1-1.3-16.5c-2.8-14.2-8.4-28.4-17.6-38.8c-16.2-18.5-69.9-20.3-72.2,21.7
		c-1.1,20.2,16.8,51.2,7.7,69.8c-5.7,11.6-15.7,21.2-27.9,25.5c-10.3,3.6-22,3.6-32.3-0.1c-4.7-1.7-7.3-4.6-12.7-4.5
		c-4.9,0.1-9.7,1.8-13.5,4.9c-1,0.8-2,1.8-2.5,3c-0.7,1.6-0.7,3.4-0.3,5.1c1.6,8.2,9,14.1,16.8,17.2c10.8,4.3,22.7,4.4,34.2,4.1
		c21-0.7,42.1-2.9,61.8-10.1c19.7-7.2,37.9-19.9,48.8-37.8C264.8,165.8,268.4,150.5,267.9,135.4z"/>
	<polygon class="st4" points="148.5,88.5 141.5,245.4 129.9,250.1 127.6,91.3 148.5,88.5 	"/>
	<path class="st5" d="M23.2,81.3c1.1,0.2,52.7-5.2,72.3-9.1c30.3-5.9,60.3-17.5,60.3-17.5s-3.3-0.9-5.7-3.1
		c-2.4-2.2-2.4-5.3-2.4-5.3L30.1,68.7c0,0-5.1,2-6.9,3.5c-1.8,1.5-3.5,8-3.5,8L23.2,81.3z"/>
	<path class="st5" d="M21.9,80c0,0,41.3-3,87.9,2.8c22.6,2.8,38.7,5.6,38.7,5.6l-8.4,9.6l-4.9,154.5c0,0-97.3-19.5-97.7-20.1
		c-0.4-0.7-21.3-146.6-21.3-146.6L21.9,80L21.9,80z"/>
	<path class="st0" d="M19.8,90.7c-0.9-0.9-0.8-2.4-0.6-3.7c1-5.3,4.2-10.1,8.3-13.8c1-0.9,2.2-1.8,2.6-3.2
		c-3.7-1.2-7.9,0.6-10.4,3.7c-2.4,3-3.3,7.1-3.4,11c0,0.9,0,1.8,0.3,2.6c0.3,0.8,0.9,1.5,1.8,1.7L19.8,90.7z"/>
	<path class="st6" d="M26.2,68.6c0.8-0.6,122.1-25.6,122.1-25.6l3.8,3.8l-127,25.4L26.2,68.6L26.2,68.6z"/>
	<path class="st0" d="M12.2,85.9c0,0,20.7,145.9,21.1,146.6c0.4,0.7,2.6,3.6,2.6,3.6L20.9,95.1L12.2,85.9L12.2,85.9z"/>
	<polygon class="st6" points="18.4,88.5 144.7,98.1 139.2,101.7 16.3,91.4 	"/>
	<path class="st6" d="M15.9,92.4c-3.1-2.7-4.5-7.1-3.2-11c1.2-4,4.8-9.9,13.5-12.8c5.1-1.7,8.4-1.9,10.3-2.3
		c1.3-0.3,4.3,1.7,3.8,2.9c-4.6-0.4-13.1,2-18.1,5.6c-3.7,2.7-5.9,6.2-5,10.7c0.7,3.4,3.5,5.9,6.2,8.1c-2.6,0.3-5.3,0-7.8-1
		c0.6-0.4,1.3-0.7,1.9-1.1L15.9,92.4z"/>
	<polygon class="st0" points="139.2,101.7 144.7,98.1 137.2,252.7 132.7,256.9 	"/>
	<path class="st7" d="M14.8,91.3c0,0,20.1,144.9,21.1,144.9c1,0,96.8,20.8,96.8,20.8l6.5-155.3L14.8,91.3z"/>
	<path class="st0" d="M61.5,123.9l-7.4-1.9l-20.5,28.9l7.1,2.4l6.3-9.6l6,1.6l-1.1,10.4l10,2.6L61.5,123.9z M49.8,137.5l3.4-6.6
		l1.5,0.4l-0.7,7.3L49.8,137.5z"/>
	<path class="st0" d="M91,156.1c-1.8-10.2-11.3-9.8-14-9.4c1.9-0.4,6.7-2.1,5-9.3c-1.6-6.9-14.1-3.9-14.1-3.9l5.6,34.3
		C73.4,167.8,92.9,166.6,91,156.1z M74.4,142.5l-1.1-5.4c0,0,4.3-0.7,4.7,1.5C78.8,142.3,73.4,142.7,74.4,142.5z M78.5,162.1l-2-10
		c0,0,7.5-1.6,7.8,3.9C84.7,161.5,78.5,162.1,78.5,162.1z"/>
	<path class="st0" d="M119.8,141.6c0,0,1.5-7.3-4.6-9.9c-5.7-2.4-9.7,0.5-13,6.5c-3.2,6-5.6,16.5-0.3,19.7c9.4,5.6,14.8-4,14.5-4.1
		c-0.4-0.1-3.5-3.3-3.7-3.2c-0.2,0.1-2.2,4.3-6.2,2.3c-2.8-1.4-1.6-5.5-0.3-9.2c1.5-4.2,2.9-6.3,5.3-5.5c2.4,0.8,1.2,3.5,1.2,3.5
		L119.8,141.6z"/>
	<path class="st0" d="M39.4,165.2c0.6-0.3,74.6,8.9,74.6,8.9s0.3,2.5,0,2.5c-0.3,0-74.6-8.8-74.6-8.8V165.2z"/>
	<path class="st0" d="M39.4,170.9c0.3-0.5,74.8,8,74.8,8l-0.9,2l-72.9-8.8L39.4,170.9z"/>
	<path class="st1" d="M238.2,150.4c-2.9-0.1-5.9,1.4-7.4,3.9c0.4-2.8,0.9-5.6,2.5-7.9c1.6-2.3,4.4-4,7.1-3.4
		c2.6,0.5,4.5,2.8,5.4,5.2c1,2.4,1.2,5.1,1.8,7.6C246.9,152.6,241.1,150.5,238.2,150.4z"/>
	<path class="st8" d="M189.4,110c1-1.6,1.1-3.6,0.9-5.5c-0.3-1.9-0.8-3.7-1.1-5.6c-1-7,2.8-14,8.1-18.6c2.8-2.4,6-4.3,8.5-6.9
		c0.3-0.3,0.7-0.7,0.6-1.2c0-0.6-0.7-1.1-1.3-1.1c-0.6,0-1.2,0.3-1.7,0.6c-9,5.1-16.3,13.3-20.2,22.9c-1.8,4.4-2.7,9-1.6,13.7
		C182.4,112,186.9,113.9,189.4,110z"/>
	<g>
		<path class="st1" d="M221.3,125.1c0,6.1-5,11.1-11.1,11.1c-6.1,0-11.1-5-11.1-11.1c0-6.1,5-11.1,11.1-11.1
			C216.3,114,221.3,119,221.3,125.1z"/>
		<path class="st9" d="M204.8,119.3c-0.5,0.7-1,1.4-1.3,2.3c-0.2,0.8-0.1,1.8,0.4,2.5c0.5,0.7,1.5,1.1,2.3,0.7
			c1.1-0.5,1.3-1.9,1.8-2.9c0.5-1.1,1.4-2,2.6-2.5c0.4-0.2,0.7-0.3,1-0.5c0.3-0.2,0.5-0.7,0.4-1c-0.3-0.8-2.7-0.9-3.5-0.9
			C207,117.1,205.7,118.1,204.8,119.3z"/>
	</g>
	<g>
		<ellipse class="st1" cx="253.5" cy="118.9" rx="9.9" ry="11.1"/>
		<path class="st9" d="M248.7,113.2c-0.5,0.7-0.9,1.4-1.1,2.3c-0.2,0.8-0.1,1.8,0.3,2.5c0.5,0.7,1.4,1.1,2.1,0.7
			c1-0.5,1.2-1.9,1.6-2.9c0.5-1.1,1.3-2,2.3-2.5c0.3-0.2,0.7-0.3,0.9-0.5c0.3-0.2,0.5-0.7,0.3-1c-0.3-0.8-2.4-0.9-3.1-0.9
			C250.6,110.9,249.5,112,248.7,113.2z"/>
	</g>
	<path class="st1" d="M228.9,116.5c1.6-0.7,3.3-1,5-0.7c2.9,0.6,5.2,3.6,5,6.6c0,0.3-0.1,0.6-0.3,0.9c-0.5,0.7-1.6,0.3-2.4-0.1
		c-1.4-0.7-2.9-1-4.4-0.7c-1.5,0.2-2.9,1.1-3.7,2.4c-0.3,0.5-0.5,1-0.8,1.4c-0.3,0.4-0.8,0.8-1.4,0.7c-0.6,0-1.1-0.6-1.3-1.1
		c-0.2-0.6-0.1-1.2-0.1-1.8c0.1-1.4-0.2-3.6,0.4-4.9C225.5,117.9,227.7,117,228.9,116.5z"/>
	<path class="st1" d="M168,93.6c-0.5-1.9-1.3-4-3.1-4.5c-1.4-0.4-2.9,0.4-4.2,1.2c-1.3,0.7-2.6,1.3-4,1.9c-0.8,0.3-1.6,0.6-2.4,0.6
		c-0.8,0-1.7-0.4-2-1.1c-0.7-1.4,0.6-2.8,1.8-3.7c3-2.2,6.4-4,9.9-5.2c0.7-0.3,1.6-0.5,2.3-0.2c0.5,0.2,1,0.6,1.4,1
		c1.7,1.8,3,3.9,4.1,6.1c3.1,5.6,5.6,11.6,8.2,17.4c0.5,1.1,0.9,2.2,1,3.4c0.1,1.9-0.9,3.6-1.6,5.4c-0.7,1.7-1,3.6-1.1,5.4
		c0,1.6-0.8,6-2.2,2.7c-1.3-2.8-1.8-6.3-2.6-9.2C171.7,107.6,169.9,100.6,168,93.6z"/>
	<path class="st10" d="M146.3,227.2c21-0.7,42.1-2.9,61.8-10.1c19.7-7.2,37.9-19.9,48.8-37.8c7.8-13,11.5-28.2,11-43.4
		c0.1-1.7,0.1-3.3,0-5c-0.4-0.5-1-0.9-1.6-1c1.5,16.4-3.2,33.4-12.9,46.7c-9.1,12.5-22.4,21.7-36.7,27.7c-14.3,6-29.7,8.9-45.1,10.7
		c-4.3,0.5-8.7,0.8-13,0.7c-3.8-0.1-7.7-0.6-11.3-1.8c-1.6-0.6-2.9-1.5-4.2-2.4l-0.7,15.9C143.7,227.2,145,227.2,146.3,227.2z"/>
	<g>
		<path class="st11" d="M248.8,158.9c-11.1,3.4-23.1,4.7-34.5,2.7c-7.1-1.2-14.1-3.7-20.2-7.5c-2.9-1.8-5.4-4.1-8.1-6.3
			c0.5,2.9,0.9,5.7,1,8.4c8.6,6.1,19.1,9.2,29.6,9.8c11,0.7,22-1.3,32.5-4.4c5.6-1.7,11.1-3.6,16.5-6c0.2-0.1,0.4-0.2,0.6-0.2
			c0.5-2.3,0.8-4.6,1.1-6.9C262.6,153.5,255.6,156.8,248.8,158.9z"/>
		<path class="st11" d="M167.1,207.7c-2.1-4.2-3.4-9-3.8-13.7c-1.6,0.9-3.2,1.7-4.9,2.3c1.2,6.9,3.3,13.6,6.4,19.8
			c1.7,3.3,3.9,6.8,6.6,9.3c2.8-0.3,5.6-0.7,8.4-1.2C174.9,219.5,170.1,213.8,167.1,207.7z"/>
		<path class="st11" d="M180.3,178.6c-1.8,2.5-3.8,4.9-5.9,7.1c3.4,5.8,7.9,11.1,13.2,15.4c5.9,4.8,16.2,10.7,31.4,11.3
			c2-0.9,4-2,5.9-3.1C201.3,209.2,183.2,196,180.3,178.6z"/>
	</g>
	<g>
		<circle class="st12" cx="262" cy="115.7" r="22.9"/>
		<g>
			<path class="st1" d="M262,142.3c-14.7,0-26.6-11.9-26.6-26.6c0-14.7,11.9-26.6,26.6-26.6c14.7,0,26.6,11.9,26.6,26.6
				C288.6,130.3,276.7,142.3,262,142.3z M262,95.4c-11.2,0-20.3,9.1-20.3,20.3c0,11.2,9.1,20.3,20.3,20.3c11.2,0,20.3-9.1,20.3-20.3
				C282.2,104.5,273.2,95.4,262,95.4z"/>
		</g>
		<path class="st13" d="M248.1,106.7c-1.6,3-2.3,6.4-2,9.8c0.1,1.6,0.5,3.2,1.4,4.5c0.9,1.3,2.5,2.2,4.1,1.9c2.2-0.4,3.5-2.8,3.8-5
			c0.2-2.2-0.2-4.5,0-6.7c0.4-2.9,2.1-5.6,4.6-7.1c0.6-0.4,1.3-0.7,1.9-1.2c0.5-0.5,0.9-1.3,0.8-2c-0.2-0.8-0.9-1.3-1.7-1.4
			c-0.8-0.1-1.6,0-2.3,0.2C254.1,100.5,250.6,102.5,248.1,106.7z"/>
	</g>
	<g>
		<circle class="st12" cx="202.9" cy="126.9" r="22.9"/>
		<g>
			<path class="st1" d="M202.9,153.5c-14.7,0-26.6-11.9-26.6-26.6c0-14.7,11.9-26.6,26.6-26.6c14.7,0,26.6,11.9,26.6,26.6
				C229.5,141.6,217.6,153.5,202.9,153.5z M202.9,106.7c-11.2,0-20.3,9.1-20.3,20.3c0,11.2,9.1,20.3,20.3,20.3
				c11.2,0,20.3-9.1,20.3-20.3C223.2,115.7,214.1,106.7,202.9,106.7z"/>
		</g>
		<path class="st13" d="M189.1,117.9c-1.6,3-2.3,6.4-2,9.8c0.1,1.6,0.5,3.2,1.4,4.5c0.9,1.3,2.5,2.2,4.1,1.9c2.2-0.4,3.5-2.8,3.8-5
			c0.2-2.2-0.2-4.5,0-6.7c0.4-2.9,2.1-5.6,4.6-7.1c0.6-0.4,1.3-0.7,1.9-1.2c0.5-0.5,0.9-1.3,0.8-2c-0.2-0.8-0.9-1.3-1.7-1.4
			c-0.8-0.1-1.6,0-2.3,0.2C195,111.7,191.6,113.7,189.1,117.9z"/>
	</g>
</g>
</svg>
