<?xml version="1.0" encoding="utf-8"?>
<!-- Generator: Adobe Illustrator 27.4.0, SVG Export Plug-In . SVG Version: 6.00 Build 0)  -->
<svg version="1.1" id="katman_1" xmlns="http://www.w3.org/2000/svg" xmlns:xlink="http://www.w3.org/1999/xlink" x="0px" y="0px"
	 viewBox="0 0 300 300" style="enable-background:new 0 0 300 300;" xml:space="preserve">
<style type="text/css">
	.st0{fill:#6E4E46;}
	.st1{fill:#D8BFAA;}
	.st2{fill:#99AD65;}
	.st3{fill:#FEE5C1;}
	.st4{fill:#EAD0B5;}
	.st5{fill:#CA907F;}
	.st6{fill:#996E60;}
	.st7{fill:#262728;}
	.st8{fill:#FFFFFF;}
	.st9{opacity:0.32;fill:#FFFFFF;}
	.st10{fill:#909E5E;}
	.st11{fill:#879659;}
	.st12{opacity:0.27;fill:#76787B;}
	.st13{opacity:0.64;fill:#FFFFFF;}
</style>
<g>
	<g>
		<polygon class="st0" points="151.2,46.8 148.4,72.4 131.9,50.2 151.2,46.8 		"/>
		<path class="st1" d="M155,54.8l-3.8,163.8c0,0,6.1,4.3-27.7,9.3c-33.8,5-84-15.9-84-15.9L29.3,78.3l52.3-14.5L155,54.8L155,54.8z"
			/>
		<path class="st2" d="M267.1,135.4c0.2-5.5-0.2-11.1-1.3-16.5c-2.8-14.2-8.4-28.4-17.6-38.8C232,61.5,178.4,59.8,176,101.7
			c-1.1,20.2,16.8,51.2,7.7,69.8c-5.7,11.6-15.7,21.2-27.9,25.5c-10.3,3.6-22,3.6-32.3-0.1c-4.7-1.7-7.3-4.6-12.7-4.5
			c-4.9,0.1-9.7,1.8-13.5,4.9c-1,0.8-2,1.8-2.5,3c-0.7,1.6-0.7,3.4-0.3,5.1c1.6,8.2,9,14.1,16.8,17.2c10.8,4.3,22.7,4.4,34.2,4.1
			c21-0.7,42.1-2.9,61.8-10.1c19.7-7.2,37.9-19.9,48.8-37.8C264,165.8,267.6,150.5,267.1,135.4z"/>
		<polygon class="st3" points="147.7,88.5 140.7,245.4 129.1,250.1 126.8,91.3 147.7,88.5 		"/>
		<path class="st4" d="M22.4,81.3c1.1,0.2,52.7-5.2,72.3-9.1c30.3-5.9,60.3-17.5,60.3-17.5s-3.3-0.9-5.7-3.1
			c-2.4-2.2-2.4-5.3-2.4-5.3L29.3,68.7c0,0-5.1,2-6.9,3.5c-1.8,1.5-3.5,8-3.5,8L22.4,81.3z"/>
		<path class="st4" d="M21.1,80c0,0,41.3-3,87.9,2.8c22.6,2.8,38.7,5.6,38.7,5.6l-8.4,9.6l-4.9,154.5c0,0-97.3-19.5-97.7-20.1
			c-0.4-0.7-21.3-146.6-21.3-146.6L21.1,80L21.1,80z"/>
		<path class="st0" d="M19,90.7c-0.9-0.9-0.8-2.4-0.6-3.7c1-5.3,4.2-10.1,8.3-13.8c1-0.9,2.2-1.8,2.6-3.2c-3.7-1.2-7.9,0.6-10.4,3.7
			c-2.4,3-3.3,7.1-3.4,11c0,0.9,0,1.8,0.3,2.6c0.3,0.8,0.9,1.5,1.8,1.7L19,90.7z"/>
		<path class="st5" d="M25.4,68.6c0.8-0.6,122.1-25.6,122.1-25.6l3.8,3.8l-127,25.4L25.4,68.6L25.4,68.6z"/>
		<path class="st0" d="M11.4,85.9c0,0,20.7,145.9,21.1,146.6c0.4,0.7,2.6,3.6,2.6,3.6L20.1,95.1L11.4,85.9L11.4,85.9z"/>
		<polygon class="st5" points="17.6,88.5 143.9,98.1 138.4,101.7 15.5,91.4 		"/>
		<path class="st5" d="M15.1,92.4c-3.1-2.7-4.5-7.1-3.2-11c1.2-4,4.8-9.9,13.5-12.8c5.1-1.7,8.4-1.9,10.3-2.3
			c1.3-0.3,4.3,1.7,3.8,2.9c-4.6-0.4-13.1,2-18.1,5.6c-3.7,2.7-5.9,6.2-5,10.7c0.7,3.4,3.5,5.9,6.2,8.1c-2.6,0.3-5.3,0-7.8-1
			c0.6-0.4,1.3-0.7,1.9-1.1L15.1,92.4z"/>
		<polygon class="st0" points="138.4,101.7 143.9,98.1 136.4,252.7 131.9,256.9 		"/>
		<path class="st6" d="M14,91.3c0,0,20.1,144.9,21.1,144.9c1,0,96.8,20.8,96.8,20.8l6.5-155.3L14,91.3z"/>
		<path class="st0" d="M60.7,123.9l-7.4-1.9l-20.5,28.9l7.1,2.4l6.3-9.6l6,1.6l-1.1,10.4l10,2.6L60.7,123.9z M49,137.5l3.4-6.6
			l1.5,0.4l-0.7,7.3L49,137.5z"/>
		<path class="st0" d="M90.2,156.1c-1.8-10.2-11.3-9.8-14-9.4c1.9-0.4,6.7-2.1,5-9.3c-1.6-6.9-14.1-3.9-14.1-3.9l5.6,34.3
			C72.6,167.8,92.1,166.6,90.2,156.1z M73.6,142.5l-1.1-5.4c0,0,4.3-0.7,4.7,1.5C78,142.3,72.6,142.7,73.6,142.5z M77.7,162.1l-2-10
			c0,0,7.5-1.6,7.8,3.9C83.9,161.5,77.7,162.1,77.7,162.1z"/>
		<path class="st0" d="M119,141.6c0,0,1.5-7.3-4.6-9.9c-5.7-2.4-9.7,0.5-13,6.5c-3.2,6-5.6,16.5-0.3,19.7c9.4,5.6,14.8-4,14.5-4.1
			c-0.4-0.1-3.5-3.3-3.7-3.2c-0.2,0.1-2.2,4.3-6.2,2.3c-2.8-1.4-1.6-5.5-0.3-9.2c1.5-4.2,2.9-6.3,5.3-5.5c2.4,0.8,1.2,3.5,1.2,3.5
			L119,141.6z"/>
		<path class="st0" d="M38.6,165.2c0.6-0.3,74.6,8.9,74.6,8.9s0.3,2.5,0,2.5c-0.3,0-74.6-8.8-74.6-8.8V165.2z"/>
		<path class="st0" d="M38.6,170.9c0.3-0.5,74.8,8,74.8,8l-0.9,2l-72.9-8.8L38.6,170.9z"/>
		<path class="st7" d="M193.9,144c2.9,0.1,5.9-1.4,7.4-3.9c-0.4,2.8-0.9,5.6-2.5,7.9c-1.6,2.3-4.4,4-7.1,3.4
			c-2.6-0.5-4.5-2.8-5.4-5.2c-1-2.4-1.2-5.1-1.8-7.6C185.2,141.8,191.1,143.9,193.9,144z"/>
		<g>
			<ellipse class="st7" cx="191.9" cy="115.7" rx="9.9" ry="11.1"/>
			<path class="st8" d="M183.2,114.2c-0.1,0.8-0.1,1.7,0.1,2.5c0.2,0.8,0.7,1.7,1.5,2.1c0.7,0.4,1.7,0.3,2.2-0.3
				c0.6-0.9,0.1-2.2,0-3.3c-0.1-1.2,0.2-2.4,0.8-3.3c0.2-0.3,0.5-0.5,0.6-0.9c0.1-0.3,0.1-0.8-0.2-1.1c-0.6-0.6-2.6,0.3-3.2,0.7
				C183.8,111.3,183.3,112.8,183.2,114.2z"/>
		</g>
		<path class="st9" d="M188.7,92.9c1.8-0.7,3.1-2.2,4-3.9c0.9-1.7,1.5-3.5,2.5-5.1c3.4-6.2,10.6-9.5,17.7-10c3.6-0.3,7.3,0.1,11-0.5
			c0.5-0.1,1-0.2,1.2-0.6c0.4-0.5,0.1-1.3-0.4-1.6c-0.5-0.4-1.1-0.5-1.8-0.6c-10.3-1.3-21,0.9-29.9,6.2c-4,2.4-7.6,5.6-9.5,10
			C182,90.4,184.3,94.6,188.7,92.9z"/>
		<path class="st10" d="M145.6,227.2c21-0.7,42.1-2.9,61.8-10.1c19.7-7.2,37.9-19.9,48.8-37.8c7.8-13,11.5-28.2,11-43.4
			c0.1-1.7,0.1-3.3,0-5c-0.4-0.5-1-0.9-1.6-1c1.5,16.4-3.2,33.4-12.9,46.7c-9.1,12.5-22.4,21.7-36.7,27.7
			c-14.3,6-29.7,8.9-45.1,10.7c-4.3,0.5-8.7,0.8-13,0.7c-3.8-0.1-7.7-0.6-11.3-1.8c-1.6-0.6-2.9-1.5-4.2-2.4l-0.7,15.9
			C142.9,227.2,144.2,227.2,145.6,227.2z"/>
		<g>
			<path class="st11" d="M248.1,158.9c-11.1,3.4-23.1,4.7-34.5,2.7c-7.1-1.2-14.1-3.7-20.2-7.5c-2.9-1.8-5.4-4.1-8.1-6.3
				c0.5,2.9,0.9,5.7,1,8.4c8.6,6.1,19.1,9.2,29.6,9.8c11,0.7,22-1.3,32.5-4.4c5.6-1.7,11.1-3.6,16.5-6c0.2-0.1,0.4-0.2,0.6-0.2
				c0.5-2.3,0.8-4.6,1.1-6.9C261.8,153.5,254.8,156.8,248.1,158.9z"/>
			<path class="st11" d="M166.3,207.7c-2.1-4.2-3.4-9-3.8-13.7c-1.6,0.9-3.2,1.7-4.9,2.3c1.2,6.9,3.3,13.6,6.4,19.8
				c1.7,3.3,3.9,6.8,6.6,9.3c2.8-0.3,5.6-0.7,8.4-1.2C174.1,219.5,169.3,213.8,166.3,207.7z"/>
			<path class="st11" d="M179.5,178.6c-1.8,2.5-3.8,4.9-5.9,7.1c3.4,5.8,7.9,11.1,13.2,15.4c5.9,4.8,16.2,10.7,31.4,11.3
				c2-0.9,4-2,5.9-3.1C200.5,209.2,182.4,196,179.5,178.6z"/>
		</g>
		<path class="st7" d="M218.3,114.8c0.4-0.3,0.8-0.5,1.2-0.7c9.7-4.8,19.3-6.3,29-11.1c2.6-1.3,5.7-2.6,7.4-1.5
			c1.3,0.8,1.1,2.7,1,4.4c-0.1,1.7-0.1,3.3,0,4.9c0.1,0.9,0.2,1.8,0.7,2.4c0.5,0.6,1.5,1,2.6,0.6c2.1-0.7,3.1-3.1,3.5-4.8
			c1-4.4,1.1-8.7,0.5-12.7c-0.1-0.8-0.3-1.7-1.1-2.1c-0.5-0.3-1.3-0.3-2-0.2c-3.2,0.2-6.6,1.1-9.9,2.1c-8.8,2.6-16.6,6-25.4,9.2
			c-1.2,0.4-6.5,1.7-9.5,4.1L218.3,114.8z"/>
		<g>
			<path class="st12" d="M198.1,136.7c-12.2,3.3-19.8-4.4-23.1-16.6c-3.3-12.2-1-24.3,11.1-27.6s24.8,3.9,28.1,16.1
				S210.3,133.4,198.1,136.7z"/>
			<g>
				<path class="st7" d="M172.2,120.8c-2.7-15.2-2.5-26,13-31.9c13.7-5.2,28.8,4.6,32.6,18.7c3.8,14.2-4.3,27.2-18.5,31.1
					C185.2,142.6,176,135,172.2,120.8z M211.7,109.3c-2.9-10.8-14.1-17.2-24.8-14.3c-10.8,2.9-12.2,13.1-9.3,23.9
					c2.9,10.8,9.1,18.1,19.9,15.2C208.2,131.3,214.6,120.1,211.7,109.3z"/>
			</g>
			<path class="st13" d="M197.2,98.9c-3.3-0.8-6.8-0.5-10,0.7c-1.5,0.6-2.9,1.3-3.9,2.5s-1.4,3-0.8,4.4c0.9,2,3.6,2.7,5.8,2.3
				c2.2-0.4,4.3-1.4,6.5-1.7c2.9-0.4,5.9,0.6,8.1,2.6c0.5,0.5,1,1.1,1.7,1.5c0.6,0.4,1.5,0.6,2.1,0.2c0.7-0.4,1-1.2,0.9-2
				c-0.1-0.8-0.4-1.5-0.8-2.2C204.7,103.1,201.9,100.2,197.2,98.9z"/>
		</g>
	</g>
</g>
</svg>
